<svg xmlns="http://www.w3.org/2000/svg" xmlns:xlink="http://www.w3.org/1999/xlink" viewBox="0 0 461.57 461.57"><defs><style>.cls-1{fill:none;}.cls-2{fill:#231f20;}.cls-3{fill:#c36;}.cls-4,.cls-7{fill:#306;}.cls-4{opacity:0.42;}.cls-5,.cls-8{fill:#261248;}.cls-6{fill:#639;}.cls-8{stroke:#261248;stroke-linecap:round;stroke-linejoin:round;}.cls-9{fill:#fefadf;}.cls-10{fill:#e3d6be;}.cls-11{fill:#fffffc;}.cls-12{fill:#f06;}.cls-13{fill:url(#_10_dpi_20_);}.cls-14{fill:#fcc;}</style><pattern id="_10_dpi_20_" data-name="10 dpi 20%" width="28.8" height="28.8" patternUnits="userSpaceOnUse" viewBox="0 0 28.8 28.8"><rect class="cls-1" width="28.8" height="28.8"/><circle class="cls-2" cx="28.8" cy="28.8" r="1.44"/><circle class="cls-2" cx="14.4" cy="28.8" r="1.44"/><circle class="cls-2" cx="28.8" cy="14.4" r="1.44"/><circle class="cls-2" cx="14.4" cy="14.4" r="1.44"/><circle class="cls-2" cx="7.2" cy="21.6" r="1.44"/><circle class="cls-2" cx="21.6" cy="21.6" r="1.44"/><circle class="cls-2" cx="7.2" cy="7.2" r="1.44"/><circle class="cls-2" cx="21.6" cy="7.2" r="1.44"/><circle class="cls-2" cy="28.8" r="1.44"/><circle class="cls-2" cy="14.4" r="1.44"/><circle class="cls-2" cx="28.8" r="1.44"/><circle class="cls-2" cx="14.4" r="1.44"/><circle class="cls-2" r="1.44"/></pattern></defs><title>FnJ_Asset 43_001</title><g id="Layer_2" data-name="Layer 2"><g id="character_icon" data-name="character icon"><g id="ch1"><rect id="bg" class="cls-3" width="461.57" height="461.57"/><ellipse id="shadow" class="cls-4" cx="225.6" cy="421.01" rx="102.92" ry="9.75"/><g id="body"><path class="cls-5" d="M334.16,168.83c-8-66.5-48.94-101.05-68.62-113.82s-42.74-12.34-68.62-5.85c-25.23,6.33-55.62,44-68.61,82.33S131.88,277.4,134,282.55s11.28,13.94,18.2,10.75c2.93-1.23,3.53-2.75,6.3-5.92-2.21,19.92,1.67,40.2,19,42,.77,4.58,21.69,24.21,35.15,12.66l.36-.33c8.76,11,28.21,9.26,39.23,1.91a13.2,13.2,0,0,0,4.54-5.91c56.48,12.47,40.75-39.73,44.93-47S342.14,235.33,334.16,168.83ZM294.11,327.58c-7.52,13.8-36.58,7.31-36.58,7.31s6.84-21.19,1.37-49.23c2.1,24.28-1.37,46.63-6.49,53.57s-20.17,13.23-37.94,0c5.13-13.91,9.91-27.59,6.15-49.81,1.32,17.12-4.79,47.86-11.62,53s-24.61-7.78-30.08-14.83c10.6-2.27,10.6-14.91,11.62-27.56-1.54,14.8-7.52,28.37-17.09,24.61s-13.67-9.91-12.65-45.81c0,0-3.92,9.57-10,11.62s-13.19-4.79-14.59-11.62-14.39-115.88-7.9-138.45,21.88-63.58,58.45-84.09,71.1-3.08,79.31,2.39,65.29,48.88,66.66,125.11c0,60.51-35.21,107-35.21,107S301.63,313.78,294.11,327.58Z"/><path class="cls-6" d="M294.11,327.58c-7.52,13.8-36.58,7.31-36.58,7.31s6.84-21.19,1.37-49.23c2.1,24.28-1.37,46.63-6.49,53.57s-20.17,13.23-37.94,0c5.13-13.91,9.91-27.59,6.15-49.81,1.32,17.12-4.79,47.86-11.62,53s-24.61-7.78-30.08-14.83c10.6-2.27,10.6-14.91,11.62-27.56-1.54,14.8-7.52,28.37-17.09,24.61s-13.67-9.91-12.65-45.81c0,0-3.92,9.57-10,11.62s-13.19-4.79-14.59-11.62-14.39-115.88-7.9-138.45,21.88-63.58,58.45-84.09,71.1-3.08,79.31,2.39,65.29,48.88,66.66,125.11c0,60.51-35.21,107-35.21,107S301.63,313.78,294.11,327.58Z"/><path class="cls-7" d="M190,304c-2.2,12-9.62,11.47-18.55,8-9.57-3.76-10.65-10-10.65-33.16-1,35.89,3.08,42,12.65,45.81C182.14,328,187.87,317.14,190,304Z"/><path class="cls-7" d="M190.37,301.43v0Z"/><path class="cls-7" d="M188.71,316.15a34.89,34.89,0,0,0,.77-4.28C189.27,313.36,189,314.79,188.71,316.15Z"/><path class="cls-7" d="M135.06,270.68c.55,4.32,1,7.2,1.16,8.14,1.4,6.84,8.51,13.67,14.59,11.62s10-11.62,10-11.62a28.69,28.69,0,0,1-10,5.9C145.28,286.58,137.48,277.49,135.06,270.68Z"/><path class="cls-7" d="M332.74,183.79c-.66-37-14.45-66.27-29.41-87.22a152.07,152.07,0,0,1,23.41,78.22c0,60.51-35.21,107-35.21,107s4.1,23-3.42,36.76S259,328.77,259,328.77s.51-2.22,1-6a77.54,77.54,0,0,1-2.48,12.11s29.06,6.49,36.58-7.31,3.42-36.76,3.42-36.76S332.77,244.29,332.74,183.79Z"/><path class="cls-7" d="M220.61,289.42c.17,1,.29,1.92.43,2.87-.29-2.71-.67-5.53-1.17-8.48,1.32,17.12-10,44.48-16.88,49.61-6.62,5-14.19-1-19.63-7.77a11.44,11.44,0,0,1-4.45,1.95c5.47,7.05,23.25,20,30.08,14.83S221.93,306.54,220.61,289.42Z"/><path class="cls-7" d="M216.36,334c.56-1.57,1.09-3.15,1.58-4.75Q217.19,331.63,216.36,334Z"/><path class="cls-7" d="M259.21,289.86a87.31,87.31,0,0,0-3.57-13.41c2.1,24.28-4.1,46.84-9.23,53.78s-12.57,17.83-30.35,4.6c.09-.25.18-.5.27-.75-.61,1.72-1.23,3.43-1.86,5.15,17.78,13.23,32.82,6.94,37.94,0C257.24,332.69,260.59,312.48,259.21,289.86Z"/><path class="cls-5" d="M321.53,166.65s30.07,16.6,49.61,44.35c15.24,21.64,21.11,48.2,21.15,63s.63,47.1-5.74,67.23c-6.16,19.49-19.1,22-21.91,25.92,1.42,2,7.51,5,5.83,18.17-.66,8.72-29.35,17.56-39.36,7.24-4.77-5.08-6.5-20.3-6.74-23.52s.74-18.5,7.87-28.06,19-20.18,22.92-24.18,6-11.17,8.1-19.61c4.43-20.46-5.61-85.84-42.7-117.84,0,0,40.72,47.79,40.72,98.86s-20.21,37.91-35.11,71.08c-6.33,14.1-2.66,26.8,2.13,41.69s39.36,5.32,43.62-3.72-4.79-19.68-4.79-19.68,16-9.57,20.74-22.34a80.87,80.87,0,0,0,3.31-10.07c2.43-11.16,4.54-52.45,3.07-67.67C392.46,202.14,321.52,166.65,321.53,166.65Z"/><path class="cls-6" d="M321.53,166.65s30.07,16.6,49.61,44.35c15.24,21.64,21.11,48.2,21.15,63s.63,47.1-5.74,67.23c-6.16,19.49-19.1,22-21.91,25.92,1.42,2,7.51,5,5.83,18.17-.66,8.72-29.35,17.56-39.36,7.24-4.77-5.08-6.5-20.3-6.74-23.52s.74-18.5,7.87-28.06,19-20.18,22.92-24.18,6-11.17,8.1-19.61c4.43-20.46-5.61-85.84-42.7-117.84C320.57,179.32,321.52,166.65,321.53,166.65Z"/><path class="cls-7" d="M392.29,274c0-14.76-5.92-41.33-21.15-63-8.54-12.13-19.09-22.12-28.26-29.54a142.93,142.93,0,0,1,21.82,24.07c15.24,21.64,21.11,48.2,21.15,63s.63,47.1-5.74,67.23c-6.16,19.49-19.1,22-21.91,25.92,1.42,2,7.51,5,5.83,18.17-.57,7.58-22.33,15.25-34.58,10.34a11.81,11.81,0,0,0,1.66,2.37c10,10.32,38.7,1.48,39.36-7.24,1.67-13.15-4.41-16.22-5.83-18.17,2.81-3.88,15.75-6.43,21.91-25.92C392.92,321.06,392.33,288.73,392.29,274Z"/><path class="cls-5" d="M142.64,181.58s-31.05,39.29-32.33,49.21C108.6,246.43,114,259.06,122.68,278c6,13.11,18.26,32.94,20.89,42.93s6.39,19.17,5.57,29.66-36.13,13.22-42.55,2-4.48-25.06-4.48-25.06-6.39-73.84-5.76-82.16-.57-19.39,5.76-32.19c12.23-25.87,37.9-40.38,37.9-40.38C130.63,178.13,100.65,200,95.86,226s5.32,91,3.72,103.19,3.72,26.06,13.3,30.85,37.48.66,37.89-10.84-3.85-28.22-17.68-53.9c-19.76-36.69-25-57.31-19.68-69.3C119.57,212,142.64,181.58,142.64,181.58Z"/><path class="cls-6" d="M142.64,181.58s-31.05,39.29-32.33,49.21C108.6,246.43,114,259.06,122.68,278c6,13.11,18.26,32.94,20.89,42.93s6.39,19.17,5.57,29.66-36.13,13.22-42.55,2-4.48-25.06-4.48-25.06-6.39-73.84-5.76-82.16-.57-19.39,5.76-32.19c12.23-25.87,37.9-40.38,37.9-40.38Z"/><path class="cls-7" d="M143.57,321c-2.62-10-14.91-29.82-20.89-42.93-8.64-19-14.09-31.6-12.38-47.24,1.28-9.92,32.33-49.21,32.33-49.21L140,172.85s-1,.58-2.75,1.71l.71,2.37s-31.05,39.29-32.33,49.21c-1.71,15.64,3.74,28.27,12.38,47.24,6,13.11,18.26,32.94,20.89,42.93s6.39,19.17,5.57,29.66c-.7,9-26.88,12.29-38.3,5.93.13.25.27.5.41.75,6.42,11.2,41.73,8.46,42.55-2S146.19,330.95,143.57,321Z"/><path class="cls-8" d="M143.41,123.37c-18.33,20.48-2.57,48.87,15.1,55.77s39.56-6.88,48.89-30.79,11.49-43-6.18-49.95S161.74,102.89,143.41,123.37Z"/><path class="cls-9" d="M159.92,141.43c-12.11,7.72-.14,29,9.23,35.3s18.33-6.48,25.59-12.34,12.27-20.4,2.9-26.71S172,133.71,159.92,141.43Z"/><path class="cls-8" d="M304,123.37c18.33,20.48,2.57,48.87-15.1,55.77s-39.56-6.88-48.89-30.79-11.49-43,6.18-49.95S285.67,102.89,304,123.37Z"/><path class="cls-9" d="M287.49,141.43c12.11,7.72.14,29-9.23,35.3s-18.33-6.48-25.59-12.34-12.27-20.4-2.9-26.71S275.37,133.71,287.49,141.43Z"/><path class="cls-10" d="M278.26,173.11c-9.37,6.31-18.33-6.48-25.59-12.34A23.33,23.33,0,0,1,244.76,146c-.78,6.62,3.06,14.42,7.91,18.34,7.26,5.86,16.22,18.65,25.59,12.34,7-4.69,15.34-17.61,14.24-27.12C291.57,158.54,284.36,169,278.26,173.11Z"/><path class="cls-10" d="M200.44,140.32c1.3,6.81-2.68,15.18-7.76,19.29-7.26,5.86-16.22,18.65-25.59,12.34-3.78-2.55-8-7.54-10.86-13.09,2.54,7.33,8.08,14.6,12.93,17.87,9.37,6.31,18.33-6.48,25.59-12.34C201.12,159.24,205.75,147.4,200.44,140.32Z"/><path class="cls-11" d="M176.35,136.23c-4.95,1-6.08,7.56-4.81,10s6.4-.08,9.63-1,7.63-4.25,6.36-6.72S181.3,135.28,176.35,136.23Z"/><path class="cls-11" d="M268.14,136.44c3.76.59,4.2,6.15,3.06,8.31s-4.94.21-7.37-.41-5.62-3.28-4.47-5.43S264.38,135.85,268.14,136.44Z"/><path class="cls-5" d="M168.81,239.69S159,209,198.12,188.52s91.19,33,97.24,55.36C257.67,248.07,168.81,239.69,168.81,239.69Z"/><path class="cls-9" d="M200.56,190.52s-4.41,20.89,0,25,19.21,3.36,22,.52.42-27.51.42-27.51S205.91,185.9,200.56,190.52Z"/><path class="cls-9" d="M230.71,189s-4.71,20.05-1.37,24.57,25.39,3.43,26.76.88.15-12.9-.94-15.37S232.73,188.42,230.71,189Z"/><path class="cls-10" d="M223,188.52s-1.27-.19-3.21-.38c.45,5.15,1.9,23.74-.54,26.18s-12.47,3.22-18.58,1.3c4.56,4,19.11,3.22,21.92.41S223,188.52,223,188.52Z"/><path class="cls-10" d="M255.16,199.13c-.74-1.66-10.68-6-17.7-8.38,5.39,2.2,10.44,4.66,11,5.83,1.09,2.46,2.31,12.81.94,15.37-1,1.8-12.21,2.87-19.93,1.76,3.56,4.41,25.32,3.33,26.68.79S256.25,201.59,255.16,199.13Z"/><path class="cls-12" d="M242.93,235.14c8.85,2.17,17.53,3.62,17.53,3.62a16.81,16.81,0,0,0-3.62-14c-5-6-19.89-5.93-28.85-1.24l-2.6-1.22c-17.64-1.05-26.2,2.24-30.92,7.38-2.81,3.06-2.57,15.45-1.92,25a12.93,12.93,0,0,1-4.27.94c-7.5-7.05-26-5.29-27.78,1.54s1.76,37.92,10.8,45.19,41.88,14.77,55.55,4.85S247.8,284.55,241,238.07A2.38,2.38,0,0,1,242.93,235.14Z"/><path class="cls-3" d="M242.93,235.14c8.85,2.17,17.53,3.62,17.53,3.62a16.81,16.81,0,0,0-3.62-14c-5-6-19.89-5.93-28.85-1.24l-2.6-1.22c-17.64-1.05-26.2,2.24-30.92,7.38-1.05,1.15-1.68,3.61-2,6.75a27.57,27.57,0,0,1,2.92-6.43c3.49-5.5,24.43-.93,24.43-.93s23.26-10,30.62-4.45,4.29,12.16,4.29,12.16-4.72-1.23-13.57-3.4a2.38,2.38,0,0,0-2,2.92c6.84,46.48,3.88,47.48-18.48,55.27-21,7.33-27.46-23.92-34.54-32.7s-24-8.09-25.67-1.71c-1.76,6.83,1.76,37.92,10.8,45.19s41.88,14.77,55.55,4.85S247.8,284.55,241,238.07A2.38,2.38,0,0,1,242.93,235.14Z"/><path class="cls-13" d="M242.93,235.14c8.85,2.17,17.53,3.62,17.53,3.62a16.81,16.81,0,0,0-3.62-14c-5-6-19.89-5.93-28.85-1.24l-2.6-1.22c-17.64-1.05-26.2,2.24-30.92,7.38-1.05,1.15-1.68,3.61-2,6.75a27.57,27.57,0,0,1,2.92-6.43c3.49-5.5,24.43-.93,24.43-.93s23.26-10,30.62-4.45,4.29,12.16,4.29,12.16-4.72-1.23-13.57-3.4a2.38,2.38,0,0,0-2,2.92c6.84,46.48,3.88,47.48-18.48,55.27-21,7.33-27.46-23.92-34.54-32.7s-24-8.09-25.67-1.71c-1.76,6.83,1.76,37.92,10.8,45.19s41.88,14.77,55.55,4.85S247.8,284.55,241,238.07A2.38,2.38,0,0,1,242.93,235.14Z"/><path class="cls-5" d="M260.46,238.76s-14.87-2.79-15.81,2.79,9.3,44.66-6.06,61.88-58.19,11.11-67.93,3.72-18.54-43.6-11-53.3,33.95-10.36,34.83,7.5,24.69,29.54,26.45,26.67c-5.29,3.75-12.42-1.64-18.15-6.11S192,263.78,188.28,255.62c-7.5-7.05-26-5.29-27.78,1.54s1.76,37.92,10.8,45.19,41.88,14.77,55.55,4.85S247.8,284.55,241,238.07C239.86,230.57,260.46,238.76,260.46,238.76Z"/><path class="cls-5" d="M260.46,238.76s6.3-7.61-1.2-16-31.08-5.07-35.49,1.1-17.86,19-8.38,42.48c-4.43-23.42,1.63-34.86,9.92-41.15s26-7.05,31.52-.44A16.81,16.81,0,0,1,260.46,238.76Z"/><path class="cls-5" d="M225.39,222.3s-23.68-5.43-31.34,5.39-.42,38.66-.42,38.66-3.88-31.52.84-36.67S207.75,221.25,225.39,222.3Z"/><path class="cls-14" d="M193.39,243.35c0,6.32,1.56,12.13,5.21,13.26s.73-7.27,2.09-13.26,2.33-10.41.24-11.63S193.39,237,193.39,243.35Z"/><path class="cls-14" d="M220,238.2c-.74,4.67,1,8.82,3.8,9.27s4.07-3.57,6.48-7.64c8.25-13.94-.15-11.87-3.89-11.21C223.6,229.12,220.78,233.53,220,238.2Z"/></g></g></g></g></svg>