<svg xmlns="http://www.w3.org/2000/svg" xmlns:xlink="http://www.w3.org/1999/xlink" viewBox="0 0 465.25 461.57"><defs><style>.cls-1{fill:none;}.cls-2{fill:#231f20;}.cls-3{isolation:isolate;}.cls-27,.cls-4{fill:#c36;}.cls-5,.cls-8{fill:#099;}.cls-28,.cls-5{opacity:0.47;}.cls-33,.cls-6{fill:#261248;}.cls-7{fill:#6cc;}.cls-9{fill:#ffc;}.cls-10{fill:#fefadf;}.cls-11{fill:#639;}.cls-12,.cls-15{fill:#36c;}.cls-12{opacity:0.49;}.cls-13{fill:#39f;}.cls-14{fill:#6cf;}.cls-16{fill:#fca64f;}.cls-17{fill:#fa6941;}.cls-18{fill:#f9fb57;}.cls-19,.cls-28,.cls-32{fill:#306;}.cls-20{fill:#c9c;}.cls-21{fill:#f06;}.cls-22{fill:#fcc;}.cls-23{fill:#fffffc;}.cls-24{fill:#eb0936;}.cls-25,.cls-29{fill:#b50524;}.cls-26{fill:#fff;}.cls-27{mix-blend-mode:multiply;}.cls-29{opacity:0.44;}.cls-30{fill:#ff6;}.cls-31{fill:#e3d6be;}.cls-32{opacity:0.42;}.cls-33{stroke:#261248;stroke-linecap:round;stroke-linejoin:round;}.cls-34{fill:url(#_10_dpi_20_);}.cls-35{fill:url(#_10_dpi_20_3);}</style><pattern id="_10_dpi_20_" data-name="10 dpi 20%" width="28.8" height="28.8" patternTransform="matrix(-0.48, 0.12, 0.12, 0.48, -17.28, -1.58)" patternUnits="userSpaceOnUse" viewBox="0 0 28.8 28.8"><rect class="cls-1" width="28.8" height="28.8"/><circle class="cls-2" cx="28.8" cy="28.8" r="1.44"/><circle class="cls-2" cx="14.4" cy="28.8" r="1.44"/><circle class="cls-2" cx="28.8" cy="14.4" r="1.44"/><circle class="cls-2" cx="14.4" cy="14.4" r="1.44"/><circle class="cls-2" cx="7.2" cy="21.6" r="1.44"/><circle class="cls-2" cx="21.6" cy="21.6" r="1.44"/><circle class="cls-2" cx="7.2" cy="7.2" r="1.44"/><circle class="cls-2" cx="21.6" cy="7.2" r="1.44"/><circle class="cls-2" cy="28.8" r="1.44"/><circle class="cls-2" cy="14.4" r="1.44"/><circle class="cls-2" cx="28.8" r="1.44"/><circle class="cls-2" cx="14.4" r="1.44"/><circle class="cls-2" r="1.44"/></pattern><pattern id="_10_dpi_20_3" data-name="10 dpi 20%" width="28.8" height="28.8" patternTransform="translate(23.83 -1.16) rotate(13.59) scale(0.5)" patternUnits="userSpaceOnUse" viewBox="0 0 28.8 28.8"><rect class="cls-1" width="28.8" height="28.8"/><circle class="cls-2" cx="28.8" cy="28.8" r="1.44"/><circle class="cls-2" cx="14.4" cy="28.8" r="1.44"/><circle class="cls-2" cx="28.8" cy="14.4" r="1.44"/><circle class="cls-2" cx="14.4" cy="14.4" r="1.44"/><circle class="cls-2" cx="7.2" cy="21.6" r="1.44"/><circle class="cls-2" cx="21.6" cy="21.6" r="1.44"/><circle class="cls-2" cx="7.2" cy="7.2" r="1.44"/><circle class="cls-2" cx="21.6" cy="7.2" r="1.44"/><circle class="cls-2" cy="28.8" r="1.44"/><circle class="cls-2" cy="14.4" r="1.44"/><circle class="cls-2" cx="28.8" r="1.44"/><circle class="cls-2" cx="14.4" r="1.44"/><circle class="cls-2" r="1.44"/></pattern></defs><title>Scene_char_001</title><g class="cls-3"><g id="Layer_2" data-name="Layer 2"><g id="character_icon" data-name="character icon"><g id="Layer_13" data-name="Layer 13"><rect id="bg" class="cls-4" width="461.57" height="461.57"/><ellipse id="shadow" class="cls-5" cx="138.11" cy="272.4" rx="61.98" ry="6.08" transform="translate(-70.4 49.24) rotate(-16.17)"/><g id="body"><path class="cls-6" d="M106.39,29.18c-35,3.94-67.84,70.63-53.91,96.18s118.23,14.71,124.56-9S141.38,25.24,106.39,29.18Zm68.51,86.35c-4.5,18.12-105.18,32.86-118.42,8.58s12.33-85,51.25-91.43S179.41,97.42,174.91,115.54Z"/><path class="cls-7" d="M56.49,124.11c13.24,24.29,113.92,9.54,118.42-8.58s-28.25-89.29-67.17-82.86S43.25,99.83,56.49,124.11Z"/><path id="shadow-2" data-name="shadow" class="cls-8" d="M136.3,41.12c22.22,20.07,36.91,57.93,33.79,70.46C166,127.92,83.71,141.51,57.91,126.19c17.77,21.32,112.63,6.92,117-10.66C178.24,102.13,161.17,59.68,136.3,41.12Z"/><path class="cls-9" d="M110.62,37.85c10.2-1.69,20,2.16,28.67,9-9.37-8.41-20.13-13.47-31.45-11.6C71,41.35,46.74,98.87,59.29,121.88c.12.22.24.43.38.63C50.77,97.25,74.84,43.76,110.62,37.85Z"/><path class="cls-6" d="M122.86,73.54s16.86-4.37,18.11-4.44.55,1.88.3,2.47-17.8,4.2-18.25,3.74S122.33,74.55,122.86,73.54Z"/><path class="cls-8" d="M140.78,67.92c-1.24-4.13-.57-17.62,6.31-21.32s16.68-1.9,20.61,4.42,6.18,20.4,3.46,23.8S156.33,85.31,150,80.47,142.22,72.7,140.78,67.92Z"/><path class="cls-6" d="M168.82,50.66c-4.21-6.77-14.71-8.7-22.07-4.73S138.67,64.33,140,68.75c1.54,5.12,3.06,8.26,9.85,13.44s19.77-2.41,22.68-6.05S173,57.43,168.82,50.66Zm2.34,24.16c-2.71,3.4-14.83,10.49-21.18,5.65s-7.76-7.77-9.2-12.55c-1.24-4.13-.57-17.62,6.31-21.32s16.68-1.9,20.61,4.42S173.87,71.42,171.16,74.82Z"/><path class="cls-10" d="M154.35,48.78s5-2.41,7.41-.9a17.82,17.82,0,0,1,4.5,4.54l-2.65,1.24A10.38,10.38,0,0,0,154.35,48.78Z"/><path class="cls-8" d="M85.73,77.87c.37-5.06,4.84-18.32,15.4-19.84a20.55,20.55,0,0,1,22.1,13.06c2.89,7.85,2.39,15-4,18.43s-19.36,5.81-25.46,1.71S85.5,80.9,85.73,77.87Z"/><path class="cls-6" d="M124.18,71.57a21.83,21.83,0,0,0-23.47-13.88c-11.22,1.61-16,15.7-16.36,21.07C84.11,82,86.41,88.6,92.88,93s20.25,1.82,27-1.82S127.25,79.91,124.18,71.57Zm-5,18c-6.39,3.42-19.36,5.81-25.46,1.71s-8.26-10.33-8-13.36c.37-5.06,4.84-18.32,15.4-19.84a20.55,20.55,0,0,1,22.1,13.06C126.12,78.94,125.61,86.1,119.22,89.52Z"/><path class="cls-10" d="M104.69,61s5.88-.42,8.06,1.5a12.48,12.48,0,0,1,2.77,3.07L113.64,67s-2.68-2.64-3.36-3.32S104.69,61,104.69,61Z"/><path class="cls-6" d="M99.24,65.5a7.78,7.78,0,0,0-5.44,4.56,3.11,3.11,0,0,1,1.12-.46c2.58-.5,5.73,2.2,6.26,4.91a4.71,4.71,0,0,1-8.79,3.13A16.64,16.64,0,0,0,92.67,80a10.35,10.35,0,0,0,12.14,8.48,10.2,10.2,0,0,0,8.09-12.24C111.74,70.3,104.87,64.4,99.24,65.5Z"/><path class="cls-6" d="M157.56,55.93A10.68,10.68,0,0,0,152.88,58c3-.06,5.55,2.39,6.17,5.58a6.24,6.24,0,0,1-5.14,7.24,4.42,4.42,0,0,1-3.23-.59c1.77,4.59,5.47,8,10.15,7.1,5.63-1.1,9.8-6.26,8.65-12.17S163.18,54.83,157.56,55.93Z"/><path class="cls-6" d="M117.19,101.94A174.87,174.87,0,0,0,137,98.62c10.55-2.42,15.44-5.18,15.44-5.18s2.68,14.66-4.92,18.31-16.82,3.64-21.68,1S117.19,101.94,117.19,101.94Z"/><path class="cls-11" d="M139.71,108.21s-4.18-.27-6.18.94-4.8,6.38-2.05,8c2.94,1.73,15.19-.66,16.79-3s.14-7.21-2.36-7.67S139.71,108.21,139.71,108.21Z"/></g><ellipse id="shadow-3" data-name="shadow" class="cls-12" cx="67.64" cy="317.06" rx="57.95" ry="5.5"/><path class="cls-13" d="M19.86,151.28c21-66.6,108.49-62.88,103.68-3.6s29,89.56,29,89.56C116.13,234.31-1.15,217.88,19.86,151.28Zm0,0c21-66.6,108.49-62.88,103.68-3.6s29,89.56,29,89.56C116.13,234.31-1.15,217.88,19.86,151.28Z"/><path class="cls-6" d="M159,240.78s-35.23-28.43-30-92.28S40,80.64,17.32,152.38,119.82,237.62,159,240.78ZM19.86,151.28c21-66.6,108.49-62.88,103.68-3.6s29,89.56,29,89.56C116.13,234.31-1.15,217.88,19.86,151.28ZM159,240.78s-35.23-28.43-30-92.28S40,80.64,17.32,152.38,119.82,237.62,159,240.78ZM19.86,151.28c21-66.6,108.49-62.88,103.68-3.6s29,89.56,29,89.56C116.13,234.31-1.15,217.88,19.86,151.28Z"/><path class="cls-14" d="M100.94,112.6c5.24-6.62,15.31,12,17.87,21.06s1.17,12.92-1.47,14.72-2.77-9.59-7.25-16.94S98.24,116,100.94,112.6Z"/><path class="cls-15" d="M19.86,151.28A75,75,0,0,1,34.8,124.2a80.12,80.12,0,0,0-5.87,14,60.12,60.12,0,0,0-1.68,6.59c-.62,1.61-1.21,3.26-1.74,5C8.81,202.65,76.19,225.06,125.69,234,77.76,226.59,2.7,205.66,19.86,151.28Z"/><path class="cls-6" d="M80.48,144.9c-1.39,2.49-2.08,8.24,2.15,10.48s5.94-1,8.16-5,4.12-7.16-.12-9.4S81.87,142.41,80.48,144.9Z"/><path class="cls-6" d="M52.53,134.31c-.75,2.74-4.3,7.36-8.93,6.08s-3.55-4.81-2.35-9.19,2.07-8,6.7-6.69S53.29,131.57,52.53,134.31Z"/><path class="cls-6" d="M80,176.12s-2.72.75-7.31-2-5.9-16.71-12.49-15.94-10.7,8.55-4.7,12.31c2.81,1.77,2.93-.4,6.25.24C65.44,171.5,75.23,177.82,80,176.12Z"/><path class="cls-6" d="M26.11,150.51s1.08,2.56,6.09,4.42,17.09-5.77,20.54-.23-.28,13.51-7,11.22c-3.16-1.08-1.49-2.5-4.05-4.65C38.79,158.82,27.66,155.2,26.11,150.51Z"/><path class="cls-6" d="M179.18,235c.78.77,9.76,3.74,42.37.73s43.29-8.75,44.22-10.64-.8-9.11-1.82-9.91-26.24,8.69-40.84,10.18-42.78-2.48-43.6-1.45S178.4,234.22,179.18,235Zm.55-10.73c.82-1,28.74,2.89,43.34,1.41s39.16-9.59,40.18-8.79,2.71,6,1.78,7.93-11,5.69-43.61,8.7-40.43,1.79-41.21,1S178.91,225.29,179.73,224.25Z"/><path class="cls-16" d="M263.24,216.87c1,.8,2.71,6,1.78,7.93s-11,5.69-43.61,8.7-40.43,1.79-41.21,1-1.3-9.23-.48-10.27,28.74,2.89,43.34,1.41S262.23,216.06,263.24,216.87Z"/><path class="cls-17" d="M179.73,224.25c.15-.19,1.19-.21,2.88-.14-.26,2.72.19,8.26.82,8.87.78.77,8.6,2,41.21-1,22.55-2.08,34.32-4.54,39.74-6.48-2.75,2-13.91,5.34-43,8-32.61,3-40.43,1.79-41.21,1S178.91,225.29,179.73,224.25Z"/><path class="cls-18" d="M263.34,224.75c.74-1.51-.6-5.67-1.41-6.31-.33-.26-3.81.49-8.59,1.56,5.24-1.38,9.12-2.45,9.47-2.17.81.64,2.15,4.8,1.41,6.31a2.65,2.65,0,0,1-1.13.93A1.19,1.19,0,0,0,263.34,224.75Z"/><path class="cls-6" d="M167,111.69c-.56,4.47,12.38,112.38,12.52,112.2.82-1,29,2.93,43.6,1.45,13.8-1.41,40.45-10.22,40.45-10.22,1.86-12.15,10.73-99.43,10.69-103.84-.06-6.72-9.22-19.76-9.22-19.76a223.24,223.24,0,0,1-42.32,7.27C201.2,100.34,173,94.91,173,94.91,170.6,98.57,167.46,107.93,167,111.69Zm7.66-14.32s27.06,5.15,48.57,3.6a193,193,0,0,0,39.59-6.9s9,10.66,9,17.38c0,4.4-8.67,90.55-10.52,102.7,0,0-24.05,7.2-37.86,8.6-14.6,1.49-41-2.5-41.81-1.47-.14.18-13.21-104.77-12.65-109.24C169.5,108.29,172.28,101,174.65,97.37Z"/><path class="cls-11" d="M223.22,101a193,193,0,0,0,39.59-6.9s9,10.66,9,17.38c0,4.4-8.67,90.55-10.52,102.7,0,0-24.05,7.2-37.86,8.6-14.6,1.49-41-2.5-41.81-1.47-.14.18-13.21-104.77-12.65-109.24.47-3.76,3.26-11,5.63-14.68C174.65,97.37,201.71,102.51,223.22,101Z"/><path class="cls-19" d="M174.65,97.37l1.61.29a43.43,43.43,0,0,0-3.34,10.42c-.58,4.58,12.81,112,12.95,111.86.84-1.06,27.86,3,42.81,1.5A161.32,161.32,0,0,0,248,217.81c-7.82,2-17.52,4.23-24.56,4.95-14.6,1.49-41-2.5-41.81-1.47-.14.18-13.21-104.77-12.65-109.24C169.5,108.29,172.28,101,174.65,97.37Z"/><path class="cls-20" d="M264,120.73c-.06-6.72-9-17.38-9-17.38-3.42-.24-7.4-1.21-12.25-2.13,6.74-1.3,12.13-2.72,16.3-3.87,0,0,9,10.66,9,17.38,0,2.68-3.19,35.63-6.13,63.76C263.12,151.69,264.06,123.19,264,120.73Z"/><path class="cls-6" d="M169,82.75l.38,11.34s25.64,6.69,53.3,4.7a213.15,213.15,0,0,0,48.53-9.13l1.1-11.39s-16.44,8.42-47.46,10.17A180.22,180.22,0,0,1,169,82.75ZM170.32,84a181.42,181.42,0,0,0,54.86,5.13c31-1.75,45.85-8.39,45.85-8.39l-.76,8.3s-20,7.29-47.67,9.28-52.83-4.39-52.83-4.39Z"/><path class="cls-21" d="M271,80.73s-14.83,6.64-45.85,8.39A181.42,181.42,0,0,1,170.32,84l-.56,9.93s25.16,6.39,52.83,4.39S270.27,89,270.27,89Z"/><path class="cls-4" d="M172.2,84.48,171.78,92s25.16,6.39,52.83,4.39a261.38,261.38,0,0,0,45.49-7.27,195.71,195.71,0,0,1-47.5,9.22c-27.67,2-52.83-4.39-52.83-4.39l.56-9.93S171,84.17,172.2,84.48Z"/><path class="cls-22" d="M268.79,82.79s-11.28,4.62-35.15,6.71a108,108,0,0,1-12,.37c4.17,0,8.64-.12,13.32-.53,23.87-2.09,35.15-7.56,35.15-7.56l-.39,6.42-.58.22Z"/><path class="cls-10" d="M224.88,88.44a185.08,185.08,0,0,1-41-2.43,129.77,129.77,0,0,1,39.27-8.31c19-1.07,32.69,2.92,37.88,4.77A158.05,158.05,0,0,1,224.88,88.44Z"/><path class="cls-23" d="M221.57,80.58s-13.77,1-18.72,1.77a61.37,61.37,0,0,0-9.47,2.43L224.5,82.1Z"/><path class="cls-6" d="M245.7,82.95c.11-1-7.37-2.55-8.92-2.45S230,82,230,82.66s5.69,2.2,7.9,2.15S245.61,83.75,245.7,82.95Z"/><path class="cls-6" d="M169,82.75A138.31,138.31,0,0,0,183.85,86a129.77,129.77,0,0,1,39.27-8.31c19-1.07,32.69,2.92,37.88,4.77a73.88,73.88,0,0,0,11.33-4.2s-19.87-8.93-50.88-7.17S169,82.75,169,82.75Zm2.79,0S191,73.82,222,72.07s48.75,6.35,48.75,6.35-2.27,1.22-9.74,3.45a93.26,93.26,0,0,0-37.82-5.65,122,122,0,0,0-39.29,9.24C174.73,83.89,171.81,82.7,171.81,82.7Z"/><path class="cls-24" d="M222,72.07c31-1.75,48.75,6.35,48.75,6.35s-2.27,1.22-9.74,3.45a93.26,93.26,0,0,0-37.82-5.65,122,122,0,0,0-39.29,9.24c-9.21-1.57-12.13-2.77-12.13-2.77S191,73.82,222,72.07Z"/><path class="cls-25" d="M192.63,76.18a87.22,87.22,0,0,0-15.1,5.55s0,0,0,0h0c.13,0,1.17.15,8.59,1.42,2.94-1.17,9.46-2.79,18-4.18a131.59,131.59,0,0,0-20.21,6.5c-9.21-1.57-12.13-2.77-12.13-2.77S179.36,79.21,192.63,76.18Z"/><path class="cls-26" d="M266,78.45s-13.76-6.66-38.1-5.81c-1.26,0-2.49.11-3.7.18,1.83-.14,3.71-.24,5.65-.31,24.34-.84,38.1,5.81,38.1,5.81Z"/><path class="cls-6" d="M249.47,45.71s.92,2.94,5.51,5.55,10.81,3,10.81,3,.21-2.93-4.38-5.54S249.47,45.71,249.47,45.71Zm1,.44s6.09,0,10.67,2.64,4.18,5,4.18,5a24.22,24.22,0,0,1-10.07-2.74C250.64,48.45,250.44,46.15,250.44,46.15Z"/><path class="cls-15" d="M255.22,51.06c-4.58-2.61-4.78-4.91-4.78-4.91s6.09,0,10.67,2.64,4.18,5,4.18,5A24.22,24.22,0,0,1,255.22,51.06Z"/><path class="cls-6" d="M237,67.5c-.94,5.45-2.32,12.14-3.28,16.66a19.09,19.09,0,0,0,4.19.65c.37,0,.84,0,1.36-.1-.05.24,4-16.85,7.94-21.51,5.52-6.52,18.6-8.92,18.6-8.92s-6.22-.41-10.81-3-5.51-5.55-5.51-5.55S238.54,58.35,237,67.5Zm12.47-20.82S250,49,254.58,51.6a19.62,19.62,0,0,0,7.79,2.78s-10.52,1.91-16,8.43c-3.94,4.66-7.52,21.39-7.47,21.15-.52.06-.88.45-1.25.46a12.62,12.62,0,0,1-3.25-.64c1-4.52,2.25-10.74,3.19-16.19C239.13,58.44,249.43,46.67,249.43,46.67Z"/><path class="cls-13" d="M249.43,46.67S250,49,254.58,51.6a19.62,19.62,0,0,0,7.79,2.78s-10.52,1.91-16,8.43c-3.94,4.66-7.52,21.39-7.47,21.15-.52.06-.88.45-1.25.46a12.62,12.62,0,0,1-3.25-.64c1-4.52,2.25-10.74,3.19-16.19C239.13,58.44,249.43,46.67,249.43,46.67Z"/><path class="cls-15" d="M249.43,46.67a4.21,4.21,0,0,0,.7,1.27c-2.24,2.69-9.92,12.39-11.27,20.19-.93,5.38-2.2,11.49-3.15,16l-1.35-.35c1-4.52,2.25-10.74,3.19-16.19C239.13,58.44,249.43,46.67,249.43,46.67Z"/><path class="cls-15" d="M258.2,53.32a15.49,15.49,0,0,0,4.17,1.06l-.75.16A21.88,21.88,0,0,1,258.2,53.32Z"/><path class="cls-25" d="M243.63,174.4s-6.16,3.34-11.69,2.47-10.63-7.76-14.5-7.72-7,3.09-7,3.09,4.09-2.33,6.88-1.74,9.54,7.63,12.9,8.33S243.63,174.4,243.63,174.4Z"/><path class="cls-27" d="M259,145.32l-38.3-3.1-40.21-6.65s-2.36,15,3.68,20.46,22.35,2.9,25.48,1.84,7.3-9.07,7.3-9.07l4.92,1s1.13,9.52,3,11,20.93,5.91,27.35.58S259,145.32,259,145.32Z"/><path class="cls-21" d="M257.21,143l-38.3-3.1-40.21-6.65s-2.36,15,3.68,20.46,22.35,2.9,25.48,1.84,7.3-9.07,7.3-9.07l4.92,1s1.13,9.52,3,11,20.93,5.91,27.35.58S257.21,143,257.21,143Z"/><path class="cls-18" d="M257.21,143l-38.3-3.1-40.21-6.65s-.25,1.6-.38,3.95c0,.48,8.2-1.47,8.2-1.47s-8.27,3.6-8.27,3.92c0,.84,0,1.72.07,2.62s14.61-5.44,14.61-5.44l-13.67,11.38,18.51-10.65-15.38,16.15a18.57,18.57,0,0,0,2.33,1.51c.83.39,18.32-17,18.32-17l-13.11,18.5s1.93.24,2.92.3c.52,0,13.82-17.45,13.82-17.45L196.87,157l12.64-17.8-8,14.16s9.34-13.45,10-13.53c.52-.06-8.66,16.68-8.18,16.61.63-.09,1.23-.19,1.76-.29s7.9-16.13,7.9-16.13l-1.45,4.61,4.3-4.2-3,5.24s1.73.42,2.05-.07c.44-.67,6-4.85,6-4.85l-5.89,5.71,9.46-5.77-6.07,6.45,1.53.31,11.39-5.88s-11,8.35-11,8.78.18,1,.28,1.56,14.6-9.64,14.6-9.64-13.78,13.19-13.56,13.84a5.46,5.46,0,0,0,1.26,2.36c.21.17,17.84-15.82,17.84-15.82l-9.63,12.55L246.46,143s-13.53,15-12.57,15.16c.33.05,15.6-14.78,15.6-14.78l-12.66,15.07,1.78.14c1.07.09,14.07-15.09,14.07-15.09s-11.59,18.09-10.77,18.05a26.48,26.48,0,0,0,2.8-.28c1-.16,10.51-17.59,10.51-17.59s-5.58,16-4.79,15.35C256.84,153.72,257.21,143,257.21,143Z"/><ellipse class="cls-28" cx="187.88" cy="251.75" rx="2.94" ry="30.03" transform="translate(-106.21 362.16) rotate(-73.84)"/><ellipse id="shadow-4" data-name="shadow" class="cls-29" cx="95.5" cy="368.05" rx="57.9" ry="5.45"/><path class="cls-24" d="M49.73,265.19c-1.6-.7-2.23-.59-2.84-2.65s.29-8.69,4-13.43,10.77-11.36,20.73-13.42,14.66,1.67,14.66,1.67l2.57.38c-2.91-5.19-5.41-11.26-4-15.11,2.91-7.86,11.65-15.93,21.52-17.25a28.23,28.23,0,0,0-5.91,19.49c.1,1.44,1.73,3,4.07,4.52a15.25,15.25,0,0,1,.5-4.24c2.59-6,4.87-10,12.88-13.59s19,0,25.54,6.36,4.67,17.4,2.73,25.68-14.15,12.4-20,11.69a16.57,16.57,0,0,1-2.23-.41c-2.88-3.89-5.11-6.52-5.11-6.52.58,1.15,1.31,2.53,2.12,4.06h0s-.2.74.79,1.49c4.86,9.22,12,23,11.38,30.64-.64,8.51-9.91,15.79-19.89,18.62l.08,1.43c5.35.54,10.35-2.06,14.34-6-1.68,5-3.12,9.22-5.33,14.56-2.6,6.29,8.63,9.68,5.78,15.73s-7.69,6.64-11.89,4.74c-3-1.35-3.29-2.58-3-4.38a17.3,17.3,0,0,1-.73,1.75c-1.23,2.15.79,6.43-.38,9s-3.27,3.21-5,2.88-5.14-2.1-4.56-4.59,2.93-5.63,3.5-7.46c-2.07,1.28-4.79,3.56-5.42,5.23s-.67,7.83-1.33,9.28-2.93,5.63-6.23,6-6.35.38-6.8-2.94-.28-7.74,6.5-13.52,6-3.87,6.43-6.46a21.18,21.18,0,0,0,0-5.81l-18.77-9s-2.47,2.44-2.88,3.79,1.94,3.88.87,6.29-5.69,3.81-7.2,3-4.43-2.43-3.38-5.43,4.86-7.11,4.86-7.11-3.4,0-4.83,1.26-5.27,7.05-4.85,12.9,1.81,4.78-1,7.73-3.85,1.86-5.33,1.3-3.17-3.77-2.09-6.47,3.18-2.14,4.89-6.37,4.86-14.65,4.86-14.65L55,304.46s-6.67,2.52-8.29,4.25a23.51,23.51,0,0,0-4.56,6.79c-.81,2.23-2.21,10.51-2.21,10.51s-3.26-.56-4.64.77c3.43-.53,4.57-.47,6.65,1.12s4.2,3.52,3.34,5.28-2.05,4.14-5.81,4.08-6.08-1.94-7.11-7.31-.72-10.93.45-12.8,9.27-11.46,10.49-13,5.39-2.93,4.36-7.43c-.81,2.38-1.77,5.2-4.62,4.92s-6.91-3.66-5.88-7.2,6-6.28,7.16-9.19,1.59-4,1.59-4-4.55,1.91-6.51.09-1.55-5.13,2.57-12C45.08,265,47.83,266.63,49.73,265.19Z"/><path class="cls-25" d="M113.27,303.15c10-2.83,17.45-12.56,18.09-21.07.39-5.12-5.05-18.31-8.67-26.43,4.78,9.14,11,21.73,10.46,28.88C132.52,293,123.25,300.32,113.27,303.15Z"/><path class="cls-25" d="M124,254.86c-1.67-2.26-3.12-4.09-4-5.23l-.34-.71,8,4.9s1.35.3,2.23.41a17,17,0,0,0,5.26-.36,20.75,20.75,0,0,1-8.88,1.39A16.57,16.57,0,0,1,124,254.86Z"/><path class="cls-25" d="M113.69,304.6l.64,0c-.22,0-.43,0-.64,0Z"/><path class="cls-25" d="M40.07,325.28l-.13.73a9,9,0,0,0-3.41.11A13.41,13.41,0,0,1,40.07,325.28Z"/><path class="cls-25" d="M54.51,248.07c-3.7,4.74-4.6,11.37-4,13.43s1.24,2,2.84,2.65c-1,.77-2.26.68-3.67,1.07l0,0c-1.6-.7-2.23-.59-2.84-2.65s.29-8.69,4-13.43,10.59-11.17,20.33-13.33A37.82,37.82,0,0,0,54.51,248.07Z"/><path class="cls-25" d="M88.47,221.59C87,225.44,95,247.15,95,247.15s-5.59-8.31-12.62-11.48a11.29,11.29,0,0,1,3.91,1.69l2.57.38c-2.91-5.19-5.41-11.26-4-15.11,2.77-7.48,10.82-15.15,20.11-17C97.25,208.48,90.87,215.11,88.47,221.59Z"/><path class="cls-25" d="M121.53,210.51c-8,3.61-10.29,7.57-12.88,13.59a15.25,15.25,0,0,0-.5,4.24,13.3,13.3,0,0,1-3.26-2.74,4,4,0,0,1,.14-.47c2.59-6,4.87-10,12.88-13.59a16,16,0,0,1,4-1.18Z"/><path class="cls-25" d="M114.73,304.64h0Z"/><path class="cls-25" d="M59.4,324.53c1.72-4.23,4.86-14.65,4.86-14.65l-8.79-5.14h0L65.2,309S64.75,319.26,63,323.5s-3.81,3.68-4.89,6.37.6,5.91,2.09,6.47c.35.13.67.29,1,.42-2.3,2.06-3.27,1.13-4.62.61s-3.17-3.77-2.09-6.47S57.69,328.76,59.4,324.53Z"/><path class="cls-25" d="M113.18,329.69c.19,1.71,6.69,2.88,6.69,2.88a17.59,17.59,0,0,0,6-.32c-2.79,2.8-6.37,2.81-9.59,1.36C113.53,332.38,113,331.25,113.18,329.69Z"/><path class="cls-25" d="M48.2,265.83a8.3,8.3,0,0,0-2.58,2.45c-4.12,6.89-4.53,10.21-2.57,12s6.51-.09,6.51-.09-.4,1.08-1.59,4-6.12,5.66-7.16,9.19,1.95,7.24,3.9,6.6,2.16-.91,3-3.29c-.81,2.38-1.77,5.2-4.62,4.92s-6.91-3.66-5.88-7.2,6-6.28,7.16-9.19,1.59-4,1.59-4-4.55,1.91-6.51.09-1.55-5.13,2.57-12C44.33,266.08,46.47,266.2,48.2,265.83Z"/><path class="cls-25" d="M46.94,303.1c-1.22,1.56-9.32,11.14-10.49,13-1,1.6-1.36,5.87-.82,10.42a2.27,2.27,0,0,0-.33.26l.35-.05c.09.73.2,1.46.34,2.18,1,5.35,3.35,7.23,7.09,7.3a5.6,5.6,0,0,1-3.6,1c-3.75-.06-6.08-1.94-7.11-7.31s-.72-10.93.45-12.8,9.27-11.46,10.49-13,5.39-2.93,4.36-7.43C48.7,301.2,48.17,301.54,46.94,303.1Z"/><path class="cls-25" d="M102.55,338.29c.58-2.5,2.93-5.63,3.5-7.46-.56,1.83.7,3.93.13,6.43s2.82,4.27,4.56,4.59h.11a4.14,4.14,0,0,1-3.74,1C105.38,342.56,102,340.79,102.55,338.29Z"/><path class="cls-25" d="M99.19,328.45a21.18,21.18,0,0,0,0-5.81l-16.88-8.09,18.09,6.23s2.91,4,2.46,6.64.35.68-6.43,6.46-6.94,10.2-6.5,13.52c.39,2.86,2.71,3.27,5.45,3.07a5.12,5.12,0,0,1-2.27.9c-3.3.4-6.35.38-6.8-2.94s-.28-7.74,6.5-13.52S98.74,331,99.19,328.45Z"/><path class="cls-25" d="M67.78,321.29c1-3,4.86-7.11,4.86-7.11h-.21a5.53,5.53,0,0,1,3.84-1s-3.81,4.11-4.86,7.11,1.87,4.61,3.38,5.43a2.71,2.71,0,0,0,1.3.23c-1.76,1-4,1.32-4.92.81C69.65,325.9,66.74,324.29,67.78,321.29Z"/><path class="cls-6" d="M118.87,248.34s19,22.43,17.66,33.3-13.24,26.71-26.39,22.25c11.09-2.06,22.31-10,23-19.35S122.91,256.35,118.87,248.34Z"/><path class="cls-6" d="M113.72,326.69s-3.26,5.63,1.74,7.89,11.93,0,14.63-5.2-8.29-11-5.44-15.94,4.29-13.23,4-17.59c-2.11,6.27-3.64,11-6.24,17.29s8.63,9.68,5.78,15.73-7.69,6.64-11.89,4.74S113.16,330,113.72,326.69Z"/><path class="cls-6" d="M105,225.12s3.66-11.36,12.72-14.61,20.57-.47,26.49,6.42,7.91,19.82,1.07,30.7-20.52,10.24-20.52,10.24L121,252.4s-.6,2.17,5.22,2.87,18-3.41,20-11.69,3.8-19.34-2.73-25.68-17.53-10-25.54-6.36S108.1,220.73,105,225.12Z"/><path class="cls-6" d="M132,230.54s-14.13,5.42-21.11.1c-6.72-5.12-12.93-11.34-3.17-25.26q.59-.84,1.26-1.73c-16.41,3.55-20.14,8.61-25.1,17.2s7.66,22.24,11.52,26.75c-2-3.9-13.42-17.12-10.52-25s11.65-15.93,21.52-17.25a24.59,24.59,0,0,0-5.91,19.49c.6,5.33,15.5,10.73,21.44,10.64S129.14,232.52,132,230.54Z"/><path class="cls-6" d="M87.71,238s-7.93-6.81-19.52-1.93-13.68,6.83-18.26,13.79-5.59,14-1.26,15.32c-6.87,1.71-8,4.34-10.92,11.92-1.67,6.11,4.06,5.68,7.18,5.17-3.88,9.2-10.57,10.47-7.4,16.13s8.85,4.32,10-.61c0,4.75-5.66,5.05-7.38,9.15s-8.31,7.17-8.73,14.14.35,14.92,5.27,16.56,10.37-2.08,9-6.22-5.7-3.81-5-6.22.54-17.9,14.55-19.84c3.15,2.4,5.71,3.49,8.19,5.19-1.49,3.3-3.42,14.91-7.82,18.19a4.78,4.78,0,0,0-1.91,2.89c-.67,3.18,2,6.77,3.88,6.71,2.57-.08,7.8-1.87,6.92-6.69s-.37-15.45,6.33-16.33c-1.39,3.08-5.62,5.53-3.54,9s8,4.78,10.86.87-1-6.17.06-7.78a16.13,16.13,0,0,1,2.46-2.86l17.9,8.6s.88,4.1-1.24,6.92S89,335.41,86.5,341.45s-.61,10.85,4.36,11.08,9.7-5.5,9.72-11,1.93-7.58,4.48-9.36c-.75,3.37-3.83,4.25-2.75,7.8s8,5.63,10.06,1.81-1.38-8,.3-11.15c-1.9,3.6.67,6.71-.55,9.41s-3.27,3.21-5,2.88-5.14-2.1-4.56-4.59,2.93-5.63,3.5-7.46c-2.07,1.28-4.79,3.56-5.42,5.23s-.67,7.83-1.33,9.28-2.93,5.63-6.23,6-6.35.38-6.8-2.94-.28-7.74,6.5-13.52,6-3.87,6.43-6.46a21.18,21.18,0,0,0,0-5.81l-18.77-9s-2.47,2.44-2.88,3.79,1.94,3.88.87,6.29-5.69,3.81-7.2,3-4.43-2.43-3.38-5.43,4.86-7.11,4.86-7.11-3.4,0-4.83,1.26-5.27,7.05-4.85,12.9,1.81,4.78-1,7.73-3.85,1.86-5.33,1.3-3.17-3.77-2.09-6.47,3.18-2.14,4.89-6.37,4.86-14.65,4.86-14.65L55,304.46s-6.67,2.52-8.29,4.25a23.51,23.51,0,0,0-4.56,6.79c-.81,2.23-2.21,10.51-2.21,10.51s-3.26-.56-4.64.77c3.43-.53,4.57-.47,6.65,1.12s4.2,3.52,3.34,5.28-2.05,4.14-5.81,4.08-6.08-1.94-7.11-7.31-.72-10.93.45-12.8,9.27-11.46,10.49-13,5.39-2.93,4.36-7.43c-.81,2.38-1.77,5.2-4.62,4.92s-6.91-3.66-5.88-7.2,6-6.28,7.16-9.19,1.59-4,1.59-4-4.55,1.91-6.51.09-1.55-5.13,2.57-12c3.09-4.27,5.83-2.68,7.74-4.13-1.6-.7-2.23-.59-2.84-2.65s.29-8.69,4-13.43,10.77-11.36,20.73-13.42S83.17,235.87,87.71,238Z"/><line class="cls-17" x1="35.28" y1="291.92" x2="51.3" y2="295.67"/><path class="cls-30" d="M74.43,238.23c-4.16,1.22-7,3.9-6.42,6s2.69-.73,6.84-2,8.83-.4,8.22-2.48S78.59,237,74.43,238.23Z"/><path class="cls-30" d="M140.62,224c-.69,2.42,3.65,4,4.84,3.31s1.31-2.53-.54-5.84-3.65-4-4.84-3.31S141.31,221.53,140.62,224Z"/><path class="cls-30" d="M110.31,338c-.63.71.57,2,1.09,1.91s.86-.64.78-2.06-.57-2-1.09-1.91S110.95,337.27,110.31,338Z"/><path class="cls-30" d="M76.6,321.93c-.63.71.57,2,1.09,1.91s.86-.64.78-2.06-.57-2-1.09-1.91S77.23,321.23,76.6,321.93Z"/><path class="cls-30" d="M97.19,343.85c-.86,1-.14,3.44.37,3.53s1.05-.82,1.48-3.22.14-3.44-.37-3.53S98.05,342.86,97.19,343.85Z"/><path class="cls-30" d="M124.85,326.38c-.78,1.15,1.38,2.45,2.16,2.23s1.14-1.14.65-3-1.38-2.45-2.16-2.23S125.63,325.23,124.85,326.38Z"/><path class="cls-30" d="M62,332.69c-.42.52.4,1.47.74,1.44s.57-.47.51-1.54-.4-1.47-.74-1.44S62.43,332.17,62,332.69Z"/><path class="cls-30" d="M42.46,331.39c.06.95,1.79,1,2.13.57s.15-1.06-.92-2-1.79-1-2.13-.57S42.4,330.45,42.46,331.39Z"/><path class="cls-30" d="M44.83,295.19c-.8.94.74,2.62,1.39,2.56s1.08-.85,1-2.75-.74-2.62-1.39-2.56S45.63,294.25,44.83,295.19Z"/><path class="cls-30" d="M129.45,283c.67-4.28-.52-8-2.66-8.36s-.49,2.74-1.16,7-3.41,8.15-1.27,8.49S128.78,287.27,129.45,283Z"/><polygon class="cls-6" points="71.94 248.71 80.87 260.31 68.3 264.93 77.17 259.03 71.94 248.71"/><ellipse class="cls-6" cx="110.97" cy="274.99" rx="8.6" ry="10.18" transform="matrix(0.02, -1, 1, 0.02, -166.65, 379.18)"/><ellipse class="cls-10" cx="115.8" cy="274.11" rx="5.25" ry="4.53" transform="translate(-161.06 383.16) rotate(-88.6)"/><path class="cls-31" d="M114.29,269.18a5.53,5.53,0,0,0-2,4.2c-.07,2.9,1.9,5.3,4.4,5.36a4,4,0,0,0,1.65-.32,4.11,4.11,0,0,1-2.67.93c-2.5-.06-4.47-2.46-4.4-5.36A5.29,5.29,0,0,1,114.29,269.18Z"/><ellipse class="cls-23" cx="118.68" cy="272.14" rx="0.99" ry="1.59" transform="translate(-136.5 120.4) rotate(-35.7)"/><path class="cls-6" d="M98.31,282.16l-22.09-10s-8.55,13.34-5.86,17.27,12.47,8.93,18,7S97.86,285.73,98.31,282.16Z"/><path class="cls-11" d="M84.91,295s-2.45-5.1-6.4-6.62q-.3-.12-.61-.2c-4.31-1.2-6.66-2.45-9.27-.53S63,295.75,65.87,298s5.55,4.06,10.32,4.66S81.9,296.9,84.91,295Z"/><path class="cls-1" d="M76.84,289.28q.31.09.61.2c3.59,1.38,7.05,5.74,7.46,5.48-3.25,1.65-3.79,7.2-8.32,6.65a17.73,17.73,0,0,1-9.9-4.47c-2.13-1.72-.77-5.9,1.15-8.57C70.35,286.92,72.68,288.12,76.84,289.28Z"/><path class="cls-19" d="M65.87,298c2.86,2.26,5.55,4.06,10.32,4.66a4.21,4.21,0,0,0,3.47-1.08h0a14.63,14.63,0,0,0,2.51-3.31l.26-.42.07-.12.42-.64v0c.15-.22.3-.43.45-.63a6.21,6.21,0,0,1,1.52-1.5s-2.45-5.1-6.4-6.62q-.3-.12-.61-.2c-4.31-1.2-6.66-2.45-9.27-.53l0,0h0l-.28.23-.12.11-.22.21-.1.1-.29.32-.11.13-.23.28-.06.08h0C65.09,291.73,63.55,296.17,65.87,298Zm2-9.44c2.51-1.64,4.84-.44,9,.71q.31.09.61.2c3.59,1.38,7.05,5.74,7.46,5.48-3.25,1.65-3.79,7.2-8.32,6.65a17.73,17.73,0,0,1-9.9-4.47C64.56,295.41,65.93,291.24,67.85,288.57Z"/><path class="cls-6" d="M79.11,288.67s-3.21.84-3.86,3.86c.14-2.31,2.5-4.32,3.11-4.2S79.11,288.67,79.11,288.67Z"/><path class="cls-20" d="M66.75,292.24c-.35,1.45.4,3.11,1,3.25s.87-1.31,1.06-2.76,1.48-2,1-3S67.1,290.79,66.75,292.24Z"/><ellipse id="shadow-5" data-name="shadow" class="cls-32" cx="187" cy="425.95" rx="51.18" ry="4.85"/><path class="cls-6" d="M135,371.83c2.87,3,1.37,30.11,27.21,17.49a6.56,6.56,0,0,0,2.89,2.33c6.19,2.26,15.79.84,18.74-5.51l.21.12c7.85,4,15.67-7.92,15.51-10.23,8.15-2.87,7.66-13.13,4.26-22.49,1.71,1.21,2.18,1.87,3.74,2.12,3.72.73,7.09-4.58,7.54-7.32s-4.13-56.7-14.88-73.68S170.35,243,157.42,242.87c-13.27-.12-24.46,2.37-32.48,10.84s-23.78,30-19.87,63S132.05,368.73,135,371.83Zm2-.41s-22.47-18.37-29.52-47.62c-8.24-37,14.28-64.66,17.6-68.26s18-16.06,38.05-10.42,32.3,23.67,38.08,33.82,12.23,64.37,12.36,67.84-2.52,7.6-5.69,7.32-6.19-4.45-6.19-4.45c4.69,17.23,3.42,20.68-.76,23.62s-8.66-2.93-11.14-9.9c2,6,3.45,12.11,8.84,12-1.82,4-8.9,12.36-12.81,10.68S175.4,370.19,174,361.76c.78,11.18,4.69,17.23,8.79,23.35-7,8.47-15.05,7.19-18.34,4.43s-7.57-13.15-9.4-25.13A53.6,53.6,0,0,0,161.5,388s-13.29,6.53-18.53.74S137,371.42,137,371.42Z"/><path class="cls-11" d="M143,388.79c5.25,5.79,18.53-.74,18.53-.74a53.6,53.6,0,0,1-6.41-23.63c1.82,12,6.11,22.38,9.4,25.13s11.29,4,18.34-4.43c-4.1-6.13-8-12.18-8.79-23.35,1.36,8.43,7.9,22.57,11.81,24.25s11-6.63,12.81-10.68c-5.39.14-6.86-6-8.84-12,2.47,7,6.95,12.84,11.14,9.9s5.45-6.39.76-23.62c0,0,3,4.17,6.19,4.45s5.81-3.85,5.69-7.32-6.58-57.69-12.36-67.84-18-28.18-38.08-33.82-34.73,6.82-38.05,10.42-25.85,31.25-17.6,68.26c7,29.25,29.52,47.62,29.52,47.62S137.72,383,143,388.79Z"/><path class="cls-19" d="M190.54,365.25c2.46,5.54,6,4.42,9.9,1.68,4.19-2.94,4-6.08,1.28-17.27,4.69,17.23,3.42,20.68-.76,23.62C197.14,375.94,193.1,371.34,190.54,365.25Z"/><path class="cls-19" d="M190.06,364l0,0Z"/><path class="cls-19" d="M192.58,371a17.35,17.35,0,0,1-.87-2C192,369.67,192.27,370.34,192.58,371Z"/><path class="cls-19" d="M213.2,342.71c.24,2.15.38,3.59.39,4.07.12,3.47-2.52,7.6-5.69,7.32s-6.19-4.45-6.19-4.45a14.27,14.27,0,0,0,5.52,1.68C210.12,351.59,212.82,346.29,213.2,342.71Z"/><path class="cls-19" d="M107.5,323.81a76.41,76.41,0,0,1,4-45.59,75.62,75.62,0,0,0-2.18,40.54c7,29.25,29.52,47.62,29.52,47.62s.7,11.58,5.95,17.37,15.25,1.53,15.25,1.53-.51-1-1.18-2.79A38.55,38.55,0,0,0,161.5,388s-13.29,6.53-18.53.74S137,371.42,137,371.42,114.55,353.05,107.5,323.81Z"/><path class="cls-19" d="M174,361.76c0,.49.08,1,.13,1.44-.18-1.34-.32-2.75-.42-4.24,1.36,8.43,10,20.33,14,22s6.74-2.13,8.58-6.05a5.69,5.69,0,0,0,2.38.42c-1.82,4-8.9,12.36-12.81,10.68S175.4,370.19,174,361.76Z"/><path class="cls-19" d="M181.3,382.8c-.46-.69-.9-1.39-1.32-2.11Q180.62,381.77,181.3,382.8Z"/><path class="cls-19" d="M155.43,366.48a43.41,43.41,0,0,1,.16-6.9c1.82,12,7.45,22.16,10.74,24.91s8.16,7.15,15.21-1.32l-.22-.33c.49.76,1,1.52,1.5,2.27-7,8.47-15.05,7.19-18.34,4.43C161.39,387,157.41,377.58,155.43,366.48Z"/><path class="cls-6" d="M110.92,314.21s-12.59,11.54-18.8,27.23c-4.84,12.24-4.57,25.77-2.87,32.91s5.2,22.84,10.63,31.82c5.25,8.7,11.81,8.42,13.62,10-.46,1.11-3,3.3-.7,9.47,1.34,4.14,16.24,5.06,19.87-1.1,1.71-3,.77-10.57.51-12.16s-2.52-8.85-7.08-12.64-11.56-7.53-13.9-9-4.2-4.7-6.2-8.53c-4.53-9.37-7.31-42.15,6.88-61.94,0,0-14.1,27.86-8.13,52.54s14.2,16,25.27,30.25c4.71,6.07,4.42,12.64,3.84,20.4s-18.4,7.17-21.52,3.3,0-10.07,0-10.07-8.83-2.76-12.64-8.37a40.21,40.21,0,0,1-2.78-4.48c-2.48-5.11-8.32-24.82-9.39-32.35C80.78,339.65,110.92,314.21,110.92,314.21Z"/><path class="cls-11" d="M110.92,314.21s-12.59,11.54-18.8,27.23c-4.84,12.24-4.57,25.77-2.87,32.91s5.2,22.84,10.63,31.82c5.25,8.7,11.81,8.42,13.62,10-.46,1.11-3,3.3-.7,9.47,1.34,4.14,16.24,5.06,19.87-1.1,1.71-3,.77-10.57.51-12.16s-2.52-8.85-7.08-12.64-11.56-7.53-13.9-9-4.2-4.7-6.2-8.53c-4.53-9.37-7.31-42.15,6.88-61.94Z"/><path class="cls-19" d="M89.25,374.35c-1.7-7.14-2-20.67,2.87-32.91a74.68,74.68,0,0,1,10.21-17.58A71.07,71.07,0,0,0,94.6,338C89.76,350.29,90,363.81,91.73,371s5.2,22.84,10.63,31.82c5.25,8.7,11.81,8.42,13.62,10-.46,1.11-3,3.3-.7,9.47,1.16,3.6,12.57,4.76,17.92,1a5.87,5.87,0,0,1-.53,1.34c-3.63,6.16-18.53,5.24-19.87,1.1-2.35-6.16.24-8.35.7-9.47-1.81-1.55-8.36-1.27-13.62-10C94.45,397.19,91,381.49,89.25,374.35Z"/><path class="cls-6" d="M199.13,300.53s19.6,15.36,21.38,20c2.65,7.36,1.5,14.1-.47,24.28-1.36,7-5,18.05-5.08,23.19s-.85,10,.77,15,19,2.17,20.8-4-.76-12.64-.76-12.64S230.23,329.93,229,326s-2-9.44-6.54-14.88c-8.93-11.08-23-15.09-23-15.09,5.15,1.45,22.19,8.51,27.55,20.55s8.05,44.58,10.25,50.31,1.24,13-2.82,16.46-18,4.7-19.58-.81-1.44-14.09,2.25-28.12c5.26-20,5.37-30.61,1.42-35.79C213.83,312.57,199.13,300.53,199.13,300.53Z"/><path class="cls-11" d="M199.13,300.53s19.6,15.36,21.38,20c2.65,7.36,1.5,14.1-.47,24.28-1.36,7-5,18.05-5.08,23.19s-.85,10,.77,15,19,2.17,20.8-4-.76-12.64-.76-12.64S230.23,329.93,229,326s-2-9.44-6.54-14.88c-8.93-11.08-23-15.09-23-15.09Z"/><path class="cls-19" d="M215,368c.1-5.14,3.72-16.16,5.08-23.19,2-10.18,3.12-16.92.47-24.28-1.78-4.64-21.38-20-21.38-20l.25-4.53s.56.16,1.53.5l-.07,1.23s19.6,15.36,21.38,20c2.65,7.36,1.5,14.1-.47,24.28-1.36,7-5,18.05-5.08,23.19s-.85,10,.77,15c1.39,4.27,14.43,2.8,19.2-1.61,0,.14-.07.27-.11.41-1.8,6.16-19.18,9-20.8,4S214.86,373.14,215,368Z"/><path class="cls-33" d="M192,272.49c11.25,7.76,7,23.32-.78,28.72s-19.92,1.29-27.23-9.17-10.58-19.46-2.85-24.86S180.7,264.73,192,272.49Z"/><path class="cls-10" d="M186.08,283.15c6.76,2.32,3.45,14-.34,18.14s-9.62-1-13.81-3-8.31-8.42-4.52-12.57S179.33,280.83,186.08,283.15Z"/><path class="cls-33" d="M114.34,291.25c-6.47,12,4.46,23.92,13.81,25.19s18.32-7.95,20-20.59.52-22.15-8.82-23.42S120.8,279.21,114.34,291.25Z"/><path class="cls-10" d="M124.43,298c-5,5.15,3.32,14,8.58,16s8.1-5.27,10.93-9,3.55-11.29-1.72-13.25S129.38,292.9,124.43,298Z"/><path class="cls-31" d="M132.59,312.28c5.27,2,8.1-5.27,10.93-9a11.6,11.6,0,0,0,2.1-8,11.16,11.16,0,0,1-1.68,9.79c-2.82,3.68-5.66,10.91-10.93,9-3.91-1.45-9.47-6.72-10.05-11.44C124.45,306.79,129.16,311,132.59,312.28Z"/><path class="cls-31" d="M166.37,287.34c.17,3.44,3.07,7,6,8.41,4.19,2,10,7.12,13.81,3a18.47,18.47,0,0,0,3.72-7.59,19.29,19.29,0,0,1-4.16,10.15c-3.79,4.14-9.62-1-13.81-3C168.25,296.56,164.63,291.38,166.37,287.34Z"/><path class="cls-23" d="M177.54,282.55c2.5-.12,3.82,2.94,3.5,4.29s-3.1.71-4.77.65-4.19-1.16-3.86-2.51S175,282.67,177.54,282.55Z"/><path class="cls-23" d="M133.2,293.38c-1.75.73-1.31,3.46-.51,4.37s2.41-.48,3.52-1.06,2.33-2.24,1.53-3.15S134.94,292.65,133.2,293.38Z"/><path class="cls-6" d="M193.27,331.68s1.14-16-20.14-21.31S132.91,337,132.59,348.48C151.3,346.11,193.27,331.68,193.27,331.68Z"/><path class="cls-10" d="M172.18,311.62s4.57,9.58,2.92,12.08-8.89,3.87-10.6,2.83-3.42-13.25-3.42-13.25S169,310,172.18,311.62Z"/><path class="cls-10" d="M157.43,314.43s4.62,9.14,3.53,11.72-11.87,4.63-12.83,3.55-1.58-6.22-1.34-7.54S156.38,314.36,157.43,314.43Z"/><path class="cls-31" d="M161.08,313.28s.59-.24,1.51-.56c.38,2.54,1.86,11.7,3.32,12.59s6.4.1,9.13-1.54c-1.74,2.45-8.86,3.79-10.54,2.76S161.08,313.28,161.08,313.28Z"/><path class="cls-31" d="M146.79,322.16c.16-.89,4.47-4.13,7.58-6.12-2.35,1.69-4.5,3.47-4.61,4.1-.24,1.32.38,6.46,1.34,7.54.68.76,6.24,0,9.84-1.48-1.2,2.55-11.85,4.57-12.8,3.5S146.55,323.48,146.79,322.16Z"/><path class="cls-21" d="M156.91,338.14c-4,2.08-8,3.8-8,3.8a8.36,8.36,0,0,1,.11-7.19c1.71-3.47,8.92-5.19,13.8-4l1.11-.89c8.4-2.57,12.92-2,15.81,0,1.72,1.15,3,7.17,3.85,11.86a6.43,6.43,0,0,0,2.17,0c2.8-4.28,12-5.6,13.61-2.5s3.58,18.53.06,23.1-18.52,12-26.28,8.83-12.77-8.5-14.9-31.77A1.19,1.19,0,0,0,156.91,338.14Z"/><path class="cls-4" d="M156.91,338.14c-4,2.08-8,3.8-8,3.8a8.36,8.36,0,0,1,.11-7.19c1.71-3.47,8.92-5.19,13.8-4l1.11-.89c8.4-2.57,12.92-2,15.81,0a6.45,6.45,0,0,1,1.76,3,13.71,13.71,0,0,0-2.16-2.76c-2.33-2.25-11.92,2.41-11.92,2.41s-12.41-2.1-15.32,1.42-.66,6.38-.66,6.38,2.14-1.15,6.16-3.23a1.19,1.19,0,0,1,1.29,1.18c2.13,23.27,3.67,23.4,15.39,24.56,11,1.08,10.48-14.77,12.87-19.84s10.67-6.72,12.21-3.83c1.65,3.1,3.58,18.53.06,23.1s-18.52,12-26.28,8.83-12.77-8.5-14.9-31.77A1.19,1.19,0,0,0,156.91,338.14Z"/><path class="cls-34" d="M156.91,338.14c-4,2.08-8,3.8-8,3.8a8.36,8.36,0,0,1,.11-7.19c1.71-3.47,8.92-5.19,13.8-4l1.11-.89c8.4-2.57,12.92-2,15.81,0a6.45,6.45,0,0,1,1.76,3,13.71,13.71,0,0,0-2.16-2.76c-2.33-2.25-11.92,2.41-11.92,2.41s-12.41-2.1-15.32,1.42-.66,6.38-.66,6.38,2.14-1.15,6.16-3.23a1.19,1.19,0,0,1,1.29,1.18c2.13,23.27,3.67,23.4,15.39,24.56,11,1.08,10.48-14.77,12.87-19.84s10.67-6.72,12.21-3.83c1.65,3.1,3.58,18.53.06,23.1s-18.52,12-26.28,8.83-12.77-8.5-14.9-31.77A1.19,1.19,0,0,0,156.91,338.14Z"/><path class="cls-6" d="M148.86,341.93s6.86-3.09,8-.5.72,22.67,10.15,29.2,29.42-1.43,33.27-6.14,3.87-23.24-.89-27-17.62-1-16,7.69-8.48,17.16-9.67,16c3,1.19,5.81-2.24,8.06-5.07s3.07-10,3.93-14.4c2.8-4.28,12-5.6,13.61-2.5s3.58,18.53.06,23.1-18.52,12-26.28,8.83-12.77-8.5-14.9-31.77C157.86,335.57,148.86,341.93,148.86,341.93Z"/><path class="cls-6" d="M148.86,341.93a6,6,0,0,1-1.29-7.87c2.64-4.92,14.43-6.08,17.28-3.61s10.85,7.12,9,19.55c-.6-11.84-4.86-16.66-9.6-18.73s-13.4-.37-15.29,3.47A8.36,8.36,0,0,0,148.86,341.93Z"/><path class="cls-6" d="M163.89,329.88s10.81-5.39,15.78-1.06,4.72,18.64,4.72,18.64-1.8-15.69-4.69-17.63S172.29,327.31,163.89,329.88Z"/><path class="cls-22" d="M181.81,336.32c.74,3.06.66,6-1,7s-1.2-3.43-2.56-6.16-2.34-4.76-1.47-5.59S181.07,333.26,181.81,336.32Z"/><path class="cls-22" d="M168.33,336.94c.9,2.17.57,4.38-.75,4.93s-2.39-1.25-4-2.94c-5.62-5.78-1.31-5.76.57-5.87C165.55,333,167.43,334.77,168.33,336.94Z"/><ellipse id="shadow-6" data-name="shadow" class="cls-32" cx="306.49" cy="270.33" rx="4.85" ry="51.18" transform="translate(-28.27 504.74) rotate(-76.41)"/><path class="cls-6" d="M388.42,161.13c3.91-33.07-11.85-54.56-19.87-63s-19.21-11-32.48-10.84c-12.93.11-32,14.79-42.78,31.78S278,190,278.41,192.72s3.83,8.06,7.54,7.32c1.56-.25,2-.92,3.74-2.12-3.39,9.37-3.89,19.62,4.26,22.49-.16,2.31,7.66,14.23,15.51,10.23l.21-.12c2.95,6.35,12.55,7.77,18.74,5.51a6.56,6.56,0,0,0,2.89-2.33c25.84,12.62,24.34-14.44,27.21-17.49S384.51,194.2,388.42,161.13Zm-37.9,72.05c-5.25,5.79-18.53-.74-18.53-.74a53.6,53.6,0,0,0,6.41-23.63c-1.82,12-6.11,22.38-9.4,25.13s-11.29,4-18.34-4.43c4.1-6.13,8-12.18,8.79-23.35-1.36,8.43-7.9,22.57-11.81,24.25s-11-6.63-12.81-10.68c5.39.14,6.86-6,8.84-12-2.47,7-6.95,12.84-11.14,9.9s-5.45-6.39-.76-23.62c0,0-3,4.17-6.19,4.45s-5.81-3.85-5.69-7.32,6.58-57.69,12.36-67.84,18-28.18,38.08-33.82,34.73,6.82,38.05,10.42,25.85,31.25,17.6,68.26c-7,29.25-29.52,47.62-29.52,47.62S355.77,227.38,350.52,233.18Z"/><path class="cls-11" d="M350.52,233.18c-5.25,5.79-18.53-.74-18.53-.74a53.6,53.6,0,0,0,6.41-23.63c-1.82,12-6.11,22.38-9.4,25.13s-11.29,4-18.34-4.43c4.1-6.13,8-12.18,8.79-23.35-1.36,8.43-7.9,22.57-11.81,24.25s-11-6.63-12.81-10.68c5.39.14,6.86-6,8.84-12-2.47,7-6.95,12.84-11.14,9.9s-5.45-6.39-.76-23.62c0,0-3,4.17-6.19,4.45s-5.81-3.85-5.69-7.32,6.58-57.69,12.36-67.84,18-28.18,38.08-33.82,34.73,6.82,38.05,10.42,25.85,31.25,17.6,68.26c-7,29.25-29.52,47.62-29.52,47.62S355.77,227.38,350.52,233.18Z"/><path class="cls-19" d="M303,209.63c-2.46,5.54-6,4.42-9.9,1.68-4.19-2.94-4-6.08-1.28-17.27-4.69,17.23-3.42,20.68.76,23.62C296.34,220.32,300.39,215.72,303,209.63Z"/><path class="cls-19" d="M303.43,208.42l0,0Z"/><path class="cls-19" d="M300.91,215.34a17.35,17.35,0,0,0,.87-2C301.51,214.06,301.22,214.72,300.91,215.34Z"/><path class="cls-19" d="M280.29,187.1c-.24,2.15-.38,3.59-.39,4.07-.12,3.47,2.52,7.6,5.69,7.32s6.19-4.45,6.19-4.45a14.27,14.27,0,0,1-5.52,1.68C283.37,196,280.67,190.67,280.29,187.1Z"/><path class="cls-19" d="M386,168.19a76.41,76.41,0,0,0-4-45.59,75.62,75.62,0,0,1,2.18,40.54c-7,29.25-29.52,47.62-29.52,47.62s-.7,11.58-5.95,17.37-15.25,1.53-15.25,1.53.51-1,1.18-2.79a38.55,38.55,0,0,1-2.61,5.57s13.29,6.53,18.53.74,5.95-17.37,5.95-17.37S378.94,197.44,386,168.19Z"/><path class="cls-19" d="M319.45,206.15c0,.49-.08,1-.13,1.44.18-1.34.32-2.75.42-4.24-1.36,8.43-10,20.33-14,22s-6.74-2.13-8.58-6.05a5.69,5.69,0,0,1-2.38.42c1.82,4,8.9,12.36,12.81,10.68S318.09,214.58,319.45,206.15Z"/><path class="cls-19" d="M312.19,227.19c.46-.69.9-1.39,1.32-2.11Q312.87,226.15,312.19,227.19Z"/><path class="cls-19" d="M338.06,210.87a43.41,43.41,0,0,0-.16-6.9c-1.82,12-7.45,22.16-10.74,24.91S319,236,311.95,227.56l.22-.33c-.49.76-1,1.52-1.5,2.27,7,8.47,15.05,7.19,18.34,4.43C332.1,231.34,336.08,222,338.06,210.87Z"/><path class="cls-6" d="M382.57,158.6s12.59,11.54,18.8,27.23c4.84,12.24,4.57,25.77,2.87,32.91s-5.2,22.84-10.63,31.82c-5.25,8.7-11.81,8.42-13.62,10,.46,1.11,3,3.3.7,9.47-1.34,4.14-16.24,5.06-19.87-1.1-1.71-3-.77-10.57-.51-12.16s2.52-8.85,7.08-12.64,11.56-7.53,13.9-9,4.2-4.7,6.2-8.53c4.53-9.37,7.31-42.15-6.88-61.94,0,0,14.1,27.86,8.13,52.54s-14.2,16-25.27,30.25c-4.71,6.07-4.42,12.64-3.84,20.4s18.4,7.17,21.52,3.3,0-10.07,0-10.07,8.83-2.76,12.64-8.37a40.21,40.21,0,0,0,2.78-4.48c2.48-5.11,8.32-24.82,9.39-32.35C412.7,184,382.57,158.6,382.57,158.6Z"/><path class="cls-11" d="M382.57,158.6s12.59,11.54,18.8,27.23c4.84,12.24,4.57,25.77,2.87,32.91s-5.2,22.84-10.63,31.82c-5.25,8.7-11.81,8.42-13.62,10,.46,1.11,3,3.3.7,9.47-1.34,4.14-16.24,5.06-19.87-1.1-1.71-3-.77-10.57-.51-12.16s2.52-8.85,7.08-12.64,11.56-7.53,13.9-9,4.2-4.7,6.2-8.53c4.53-9.37,7.31-42.15-6.88-61.94Z"/><path class="cls-19" d="M404.24,218.73c1.7-7.14,2-20.67-2.87-32.91a74.68,74.68,0,0,0-10.21-17.58,71.07,71.07,0,0,1,7.73,14.18c4.84,12.24,4.57,25.77,2.87,32.91s-5.2,22.84-10.63,31.82c-5.25,8.7-11.81,8.42-13.62,10,.46,1.11,3,3.3.7,9.47-1.16,3.6-12.57,4.76-17.92,1a5.87,5.87,0,0,0,.53,1.34c3.63,6.16,18.53,5.24,19.87,1.1,2.35-6.16-.24-8.35-.7-9.47,1.81-1.55,8.36-1.27,13.62-10C399,241.57,402.53,225.87,404.24,218.73Z"/><path class="cls-6" d="M294.36,144.92s-19.6,15.36-21.38,20c-2.65,7.36-1.5,14.1.47,24.28,1.36,7,5,18.05,5.08,23.19s.85,10-.77,15-19,2.17-20.8-4,.76-12.64.76-12.64,5.53-36.44,6.81-40.38,2-9.44,6.54-14.88c8.93-11.08,23-15.09,23-15.09-5.15,1.45-22.19,8.51-27.55,20.55s-8.05,44.58-10.25,50.31-1.24,13,2.82,16.46,18,4.7,19.58-.81,1.44-14.09-2.25-28.12c-5.26-20-5.37-30.61-1.42-35.79C279.66,157,294.36,144.92,294.36,144.92Z"/><path class="cls-11" d="M294.36,144.92s-19.6,15.36-21.38,20c-2.65,7.36-1.5,14.1.47,24.28,1.36,7,5,18.05,5.08,23.19s.85,10-.77,15-19,2.17-20.8-4,.76-12.64.76-12.64,5.53-36.44,6.81-40.38,2-9.44,6.54-14.88c8.93-11.08,23-15.09,23-15.09Z"/><path class="cls-19" d="M278.53,212.39c-.1-5.14-3.72-16.16-5.08-23.19-2-10.18-3.12-16.92-.47-24.28,1.78-4.64,21.38-20,21.38-20l-.25-4.53s-.56.16-1.53.5l.07,1.23s-19.6,15.36-21.38,20c-2.65,7.36-1.5,14.1.47,24.28,1.36,7,5,18.05,5.08,23.19s.85,10-.77,15c-1.39,4.27-14.43,2.8-19.2-1.61,0,.14.07.27.11.41,1.8,6.16,19.18,9,20.8,4S278.63,217.53,278.53,212.39Z"/><path class="cls-33" d="M301.53,116.87c-11.25,7.76-7,23.32.78,28.72s19.92,1.29,27.23-9.17,10.58-19.46,2.85-24.86S312.79,109.11,301.53,116.87Z"/><path class="cls-10" d="M307.41,127.53c-6.76,2.32-3.45,14,.34,18.14s9.62-1,13.81-3,8.31-8.42,4.52-12.57S314.16,125.22,307.41,127.53Z"/><path class="cls-33" d="M379.15,135.63c6.47,12-4.46,23.92-13.81,25.19s-18.32-7.95-20-20.59-.52-22.15,8.82-23.42S372.69,123.59,379.15,135.63Z"/><path class="cls-10" d="M369.06,142.43c5,5.15-3.32,14-8.58,16s-8.1-5.27-10.93-9-3.55-11.29,1.72-13.25S364.11,137.29,369.06,142.43Z"/><path class="cls-31" d="M360.9,156.67c-5.27,2-8.1-5.27-10.93-9a11.6,11.6,0,0,1-2.1-8,11.16,11.16,0,0,0,1.68,9.79c2.82,3.68,5.66,10.91,10.93,9,3.91-1.45,9.47-6.72,10.05-11.44C369,151.18,364.33,155.39,360.9,156.67Z"/><path class="cls-31" d="M327.12,131.73c-.17,3.44-3.07,7-6,8.41-4.19,2-10,7.12-13.81,3a18.47,18.47,0,0,1-3.72-7.59,19.29,19.29,0,0,0,4.16,10.15c3.79,4.14,9.62-1,13.81-3C325.24,140.95,328.86,135.77,327.12,131.73Z"/><path class="cls-23" d="M316,126.94c-2.5-.12-3.82,2.94-3.5,4.29s3.1.71,4.77.65,4.19-1.16,3.86-2.51S318.46,127.05,316,126.94Z"/><path class="cls-23" d="M360.29,137.76c1.75.73,1.31,3.46.51,4.37s-2.41-.48-3.52-1.06-2.33-2.24-1.53-3.15S358.55,137,360.29,137.76Z"/><path class="cls-6" d="M300.22,176.06s-1.14-16,20.14-21.31,40.22,26.62,40.53,38.12C342.19,190.49,300.22,176.06,300.22,176.06Z"/><path class="cls-10" d="M321.31,156s-4.57,9.58-2.92,12.08,8.89,3.87,10.6,2.83,3.42-13.25,3.42-13.25S324.44,154.4,321.31,156Z"/><path class="cls-10" d="M336.06,158.82s-4.62,9.14-3.53,11.72,11.87,4.63,12.83,3.55,1.58-6.22,1.34-7.54S337.11,158.75,336.06,158.82Z"/><path class="cls-31" d="M332.41,157.66s-.59-.24-1.51-.56c-.38,2.54-1.86,11.7-3.32,12.59s-6.4.1-9.13-1.54c1.74,2.45,8.86,3.79,10.54,2.76S332.41,157.66,332.41,157.66Z"/><path class="cls-31" d="M346.7,166.54c-.16-.89-4.47-4.13-7.58-6.12,2.35,1.69,4.5,3.47,4.61,4.1.24,1.32-.38,6.46-1.34,7.54-.68.76-6.24,0-9.84-1.48,1.2,2.55,11.85,4.57,12.8,3.5S346.94,167.86,346.7,166.54Z"/><path class="cls-21" d="M336.58,182.52c4,2.08,8,3.8,8,3.8a8.36,8.36,0,0,0-.11-7.19c-1.71-3.47-8.92-5.19-13.8-4l-1.11-.89c-8.4-2.57-12.92-2-15.81,0-1.72,1.15-3,7.17-3.85,11.86a6.43,6.43,0,0,1-2.17,0c-2.8-4.28-12-5.6-13.61-2.5s-3.58,18.53-.06,23.1,18.52,12,26.28,8.83,12.77-8.5,14.9-31.77A1.19,1.19,0,0,1,336.58,182.52Z"/><path class="cls-4" d="M336.58,182.52c4,2.08,8,3.8,8,3.8a8.36,8.36,0,0,0-.11-7.19c-1.71-3.47-8.92-5.19-13.8-4l-1.11-.89c-8.4-2.57-12.92-2-15.81,0a6.45,6.45,0,0,0-1.76,3,13.71,13.71,0,0,1,2.16-2.76c2.33-2.25,11.92,2.41,11.92,2.41s12.41-2.1,15.32,1.42.66,6.38.66,6.38-2.14-1.15-6.16-3.23a1.19,1.19,0,0,0-1.29,1.18c-2.13,23.27-3.67,23.4-15.39,24.56-11,1.08-10.48-14.77-12.87-19.84s-10.67-6.72-12.21-3.83c-1.65,3.1-3.58,18.53-.06,23.1s18.52,12,26.28,8.83,12.77-8.5,14.9-31.77A1.19,1.19,0,0,1,336.58,182.52Z"/><path class="cls-35" d="M336.58,182.52c4,2.08,8,3.8,8,3.8a8.36,8.36,0,0,0-.11-7.19c-1.71-3.47-8.92-5.19-13.8-4l-1.11-.89c-8.4-2.57-12.92-2-15.81,0a6.45,6.45,0,0,0-1.76,3,13.71,13.71,0,0,1,2.16-2.76c2.33-2.25,11.92,2.41,11.92,2.41s12.41-2.1,15.32,1.42.66,6.38.66,6.38-2.14-1.15-6.16-3.23a1.19,1.19,0,0,0-1.29,1.18c-2.13,23.27-3.67,23.4-15.39,24.56-11,1.08-10.48-14.77-12.87-19.84s-10.67-6.72-12.21-3.83c-1.65,3.1-3.58,18.53-.06,23.1s18.52,12,26.28,8.83,12.77-8.5,14.9-31.77A1.19,1.19,0,0,1,336.58,182.52Z"/><path class="cls-6" d="M344.63,186.32s-6.86-3.09-8-.5-.72,22.67-10.15,29.2-29.42-1.43-33.27-6.14-3.87-23.24.89-27,17.62-1,16,7.69,8.48,17.16,9.67,16c-3,1.19-5.81-2.24-8.06-5.07s-3.07-10-3.93-14.4c-2.8-4.28-12-5.6-13.61-2.5s-3.58,18.53-.06,23.1,18.52,12,26.28,8.83,12.77-8.5,14.9-31.77C335.63,180,344.63,186.32,344.63,186.32Z"/><path class="cls-6" d="M344.63,186.32a6,6,0,0,0,1.29-7.87c-2.64-4.92-14.43-6.08-17.28-3.61s-10.85,7.12-9,19.55c.6-11.84,4.86-16.66,9.6-18.73s13.4-.37,15.29,3.47A8.36,8.36,0,0,1,344.63,186.32Z"/><path class="cls-6" d="M329.6,174.27s-10.81-5.39-15.78-1.06-4.72,18.64-4.72,18.64,1.8-15.69,4.69-17.63S321.2,171.7,329.6,174.27Z"/><path class="cls-22" d="M311.68,180.7c-.74,3.06-.66,6,1,7s1.2-3.43,2.56-6.16,2.34-4.76,1.47-5.59S312.42,177.65,311.68,180.7Z"/><path class="cls-22" d="M325.16,181.32c-.9,2.17-.57,4.38.75,4.93s2.39-1.25,4-2.94c5.62-5.78,1.31-5.76-.57-5.87C327.94,177.35,326.06,179.15,325.16,181.32Z"/><ellipse id="shadow-7" data-name="shadow" class="cls-12" cx="394.79" cy="346.01" rx="57.95" ry="5.5"/><path class="cls-13" d="M311.43,291.65s41-19.38,53.34-77.57,97.2-36.81,98.34,33S347.17,299.23,311.43,291.65Zm0,0s41-19.38,53.34-77.57,97.2-36.81,98.34,33S347.17,299.23,311.43,291.65Z"/><path class="cls-6" d="M465.24,248.88c-1.23-75.21-92.69-98.24-105.93-35.57s-55.12,79.88-55.12,79.88C342.68,301.36,466.47,324.1,465.24,248.88ZM311.43,291.65s41-19.38,53.34-77.57,97.2-36.81,98.34,33S347.17,299.23,311.43,291.65Zm153.81-42.77c-1.23-75.21-92.69-98.24-105.93-35.57s-55.12,79.88-55.12,79.88C342.68,301.36,466.47,324.1,465.24,248.88ZM311.43,291.65s41-19.38,53.34-77.57,97.2-36.81,98.34,33S347.17,299.23,311.43,291.65Z"/><path class="cls-14" d="M396.44,186.92C393.3,179.08,378.34,194,373.3,202s-4.8,12-2.79,14.53,5.39-8.4,11.78-14.17S398.05,191,396.44,186.92Z"/><path class="cls-15" d="M463.12,247.11a75,75,0,0,0-6.6-30.21A80.12,80.12,0,0,1,458.16,232a60.12,60.12,0,0,1-.27,6.8c.13,1.72.23,3.47.26,5.25.91,55.48-70.07,57.74-120.07,52.22C386.15,302.78,464.05,304.13,463.12,247.11Z"/><path class="cls-6" d="M406.84,223.7c.62,2.78-.35,8.49-5.05,9.43s-5.4-2.69-6.39-7.14-1.91-8,2.79-9S406.21,220.92,406.84,223.7Z"/><path class="cls-6" d="M436.64,221.53c-.06,2.84,2,8.28,6.82,8.37s4.78-3.59,4.88-8.14.29-8.23-4.51-8.33S436.7,218.68,436.64,221.53Z"/><path class="cls-6" d="M398.44,253.78s2.4,1.49,7.57.21,10.42-14.33,16.52-11.72,7.81,11.25,1,13.14c-3.2.89-2.69-1.22-6.06-1.55C413.66,253.49,402.48,256.76,398.44,253.78Z"/><path class="cls-6" d="M457.34,244.59s-1.77,2.14-7.1,2.5-14.73-10.41-19.62-6.08-3.59,13,3.51,12.75c3.33-.13,2.14-2,5.21-3.31C442.82,248.94,454.52,248.64,457.34,244.59Z"/><path class="cls-6" d="M331.41,403.75c-.5-1.22-28.67-5.25-42.28-10.74s-35.19-21.63-36.39-21.14-4.87,6.93-4.51,9,9,10.56,39.51,22.53,39.94,11.61,40.9,11.09S331.9,405,331.41,403.75Zm-3.63,10c-1,.52-8.82-.48-39.3-12.45S249.38,382.9,249,380.82s2.71-6.63,3.91-7.12,22.54,14.13,36.15,19.62,41.52,9.48,42,10.71S328.74,413.24,327.78,413.76Z"/><path class="cls-16" d="M252.93,373.7c-1.2.49-4.28,5-3.91,7.12s9,8.53,39.46,20.49,38.34,13,39.3,12.45,3.81-8.51,3.32-9.73-28.41-5.22-42-10.71S254.13,373.21,252.93,373.7Z"/><path class="cls-17" d="M331.09,404c-.09-.22-1.08-.54-2.73-.93-.51,2.69-2.48,7.88-3.25,8.29-1,.52-8.82-.48-39.3-12.45-21.08-8.27-31.7-13.91-36.37-17.29,2.07,2.71,11.88,9,39,19.65,30.48,12,38.34,13,39.3,12.45S331.59,405.26,331.09,404Z"/><path class="cls-18" d="M250.65,381.25c-.29-1.65,2.16-5.27,3.11-5.66.39-.16,3.52,1.53,7.81,3.88-4.64-2.79-8.08-4.89-8.5-4.72-1,.39-3.4,4-3.11,5.66a2.65,2.65,0,0,0,.83,1.21A1.19,1.19,0,0,1,250.65,381.25Z"/><path class="cls-6" d="M373.58,281.68s-28.63-2.65-48.86-10.12a223.24,223.24,0,0,1-38.62-18.75s-12.42,10-14.35,16.41c-1.27,4.22-17,90.52-18.62,102.71,0,0,23.14,15.88,36,21.07,13.61,5.49,41.79,9.52,42.28,10.74.08.21,42.54-99.83,43.24-104.29C375.24,295.72,374.84,285.85,373.58,281.68Zm-1,17.56c-.7,4.45-42.46,101.62-42.54,101.41-.5-1.22-27-4.73-40.56-10.22-12.87-5.19-34-18.8-34-18.8,1.6-12.19,17.2-97.36,18.47-101.57,1.93-6.44,13.52-14.18,13.52-14.18a193,193,0,0,0,36.11,17.64c20.23,7.47,47.66,10.06,47.65,10.06C372.53,287.74,373.19,295.5,372.6,299.24Z"/><path class="cls-11" d="M323.62,273.52a193,193,0,0,1-36.11-17.64s-11.59,7.74-13.52,14.18c-1.27,4.22-16.87,89.39-18.47,101.57,0,0,21.1,13.61,34,18.8,13.61,5.49,40.07,9,40.56,10.22.08.21,41.84-97,42.54-101.41.59-3.74-.06-11.5-1.32-15.66C371.28,283.57,343.85,281,323.62,273.52Z"/><path class="cls-19" d="M371.28,283.57l-1.62-.17a43.43,43.43,0,0,1,.31,10.94c-.72,4.56-43.48,104.05-43.56,103.84-.51-1.25-27.6-4.85-41.54-10.47a161.32,161.32,0,0,1-17.59-8.88c7,4.1,15.65,8.94,22.22,11.59,13.61,5.49,40.07,9,40.56,10.22.08.21,41.84-97,42.54-101.41C373.19,295.5,372.53,287.74,371.28,283.57Z"/><path class="cls-20" d="M278.92,281.14c1.93-6.44,13.52-14.18,13.52-14.18,3.35.72,7.44.9,12.36,1.36-6.12-3.12-10.89-6-14.57-8.25,0,0-11.59,7.74-13.52,14.18-.77,2.57-6.85,35.11-11.85,62.95C271.18,311.14,278.21,283.49,278.92,281.14Z"/><path class="cls-6" d="M325.51,261c-29.3-10.31-42.75-23-42.75-23l-2.11,11.25a213.15,213.15,0,0,0,44.07,22.27c26,9.61,52.51,10.31,52.51,10.31l3.52-10.78A180.22,180.22,0,0,1,325.51,261Zm51.42,20.6s-25.95-.87-52-10.48S281.76,249,281.76,249l1.58-8.18s12.4,10.5,41.7,20.82a181.42,181.42,0,0,0,54.12,10.34Z"/><path class="cls-21" d="M283.33,240.77s12.4,10.5,41.7,20.82a181.42,181.42,0,0,0,54.12,10.34l-2.23,9.69s-25.95-.87-52-10.48S281.76,249,281.76,249Z"/><path class="cls-4" d="M377.22,271.88l-1.68,7.3s-25.95-.87-52-10.48a261.38,261.38,0,0,1-41.67-19.64A195.71,195.71,0,0,0,325,271.14c26,9.61,52,10.48,52,10.48l2.23-9.69S378.48,271.92,377.22,271.88Z"/><path class="cls-22" d="M284.91,243.37s9.55,7.57,31.89,16.22a108,108,0,0,0,11.45,3.7c-4-1.13-8.27-2.52-12.65-4.21-22.35-8.65-31.66-17-31.66-17l-1.41,6.27.5.38Z"/><path class="cls-10" d="M325.51,261a185.08,185.08,0,0,0,40.09,9.08,129.77,129.77,0,0,0-35.41-18.91c-17.95-6.32-32.21-6.29-37.72-6A158.05,158.05,0,0,0,325.51,261Z"/><path class="cls-23" d="M330.88,254.39s13,4.75,17.49,6.91a61.37,61.37,0,0,1,8.42,5L327.64,255Z"/><path class="cls-6" d="M307,250c.16-.95,7.79-.4,9.24.13s6.07,3.3,5.94,4-6.07.53-8.19-.13S306.91,250.75,307,250Z"/><path class="cls-6" d="M333.63,245.31C304.32,235,282.76,238,282.76,238a73.88,73.88,0,0,0,9.72,7.19c5.5-.33,19.77-.36,37.72,6A129.77,129.77,0,0,1,365.6,270.1a138.31,138.31,0,0,0,15.14,1S362.93,255.63,333.63,245.31Zm32,24.24a122,122,0,0,0-35.17-19.81,93.26,93.26,0,0,0-37.9-5.1c-6.56-4.22-8.4-6-8.4-6s19.29-2.85,48.59,7.46,45.29,24.19,45.29,24.19S374.95,270.61,365.66,269.56Z"/><path class="cls-24" d="M332.79,246.09c-29.3-10.31-48.59-7.46-48.59-7.46s1.84,1.81,8.4,6a93.26,93.26,0,0,1,37.9,5.1,122,122,0,0,1,35.17,19.81c9.29,1.05,12.42.72,12.42.72S362.09,256.4,332.79,246.09Z"/><path class="cls-25" d="M359.9,258.22a87.22,87.22,0,0,1,13,9.53s0,0,0,0h0c-.12,0-1.16-.18-8.65-1-2.5-1.94-8.31-5.31-16.15-9a131.59,131.59,0,0,1,17.6,11.86c9.29,1.05,12.42.72,12.42.72S371.8,264.83,359.9,258.22Z"/><path class="cls-26" d="M288.8,240s15.07-2.56,38.21,5c1.2.39,2.36.8,3.51,1.2-1.72-.64-3.49-1.27-5.35-1.87-23.14-7.58-38.21-5-38.21-5Z"/><path class="cls-6" d="M301.48,212.73c-5.13,1.23-5.74,4.1-5.74,4.1s6.09,1.34,11.22.11,6.83-3.8,6.83-3.8S306.61,211.49,301.48,212.73Zm5.29,3.95a24.22,24.22,0,0,1-10.44-.17s.28-2.41,5.41-3.64,11,.43,11,.43S311.9,215.44,306.77,216.67Z"/><path class="cls-15" d="M306.77,216.67c5.13-1.23,6-3.38,6-3.38s-5.86-1.66-11-.43-5.41,3.64-5.41,3.64A24.22,24.22,0,0,0,306.77,216.67Z"/><path class="cls-6" d="M313.79,213.14s-1.7,2.57-6.83,3.8-11.22-.11-11.22-.11,11.9,5.95,15.38,13.74c2.49,5.57,1.63,23.11,1.65,22.87.48.2.92.36,1.28.48a19.09,19.09,0,0,0,4.21.54c.34-4.61.87-11.42,1.48-16.91C320.76,228.31,313.79,213.14,313.79,213.14Zm5.36,24.34c-.61,5.5-1.1,11.83-1.44,16.44a12.62,12.62,0,0,1-3.3-.29c-.35-.11-.6-.59-1.08-.79,0,.24,1.2-16.82-1.29-22.39-3.49-7.79-13.06-12.56-13.06-12.56a19.62,19.62,0,0,0,8.25-.5c5.13-1.23,6.32-3.3,6.32-3.3S320.18,228.24,319.15,237.47Z"/><path class="cls-13" d="M313.55,214.07s-1.19,2.07-6.32,3.3a19.62,19.62,0,0,1-8.25.5s9.58,4.77,13.06,12.56c2.49,5.57,1.28,22.64,1.29,22.39.48.2.72.68,1.08.79a12.62,12.62,0,0,0,3.3.29c.34-4.61.82-10.94,1.44-16.44C320.18,228.24,313.55,214.07,313.55,214.07Z"/><path class="cls-15" d="M313.55,214.07a4.21,4.21,0,0,1-1,1c1.4,3.21,6.08,14.66,5.21,22.53-.6,5.42-1.09,11.65-1.42,16.24l1.4,0c.34-4.61.82-10.94,1.44-16.44C320.18,228.24,313.55,214.07,313.55,214.07Z"/><path class="cls-15" d="M303.28,218a15.49,15.49,0,0,1-4.3-.14l.68.36A21.88,21.88,0,0,0,303.28,218Z"/><path class="cls-25" d="M283.58,338.37s5,4.93,10.54,5.63,12.37-4.49,16.08-3.38,5.87,4.91,5.87,4.91-3.28-3.38-6.13-3.58-11.29,4.67-14.71,4.41S283.58,338.37,283.58,338.37Z"/><path class="cls-27" d="M276.94,306.17l37.65,7.68,40.48,4.8s-1.92,15.11-9.23,18.63-22.27-3.43-25-5.32-4.49-10.74-4.49-10.74l-5-.42s-3.73,8.83-6,9.75-21.75-.15-26.43-7.05S276.94,306.17,276.94,306.17Z"/><path class="cls-21" d="M279.29,304.4l37.65,7.68,40.48,4.8s-1.92,15.11-9.23,18.63-22.27-3.43-25-5.32-4.49-10.74-4.49-10.74l-5-.42s-3.73,8.83-6,9.75-21.75-.15-26.43-7.05S279.29,304.4,279.29,304.4Z"/><path class="cls-18" d="M279.29,304.4l37.65,7.68,40.48,4.8s-.2,1.61-.73,3.9c-.11.47-7.47-3.69-7.47-3.69s6.94,5.76,6.85,6.07c-.23.81-.49,1.65-.8,2.5s-12.52-9.29-12.52-9.29l10,14.74L337.9,315.72l10.28,19.79a18.57,18.57,0,0,1-2.66.8c-.91.15-12.85-21.46-12.85-21.46l7.44,21.42s-1.92-.31-2.89-.53c-.51-.12-8.41-20.61-8.41-20.61l4.53,19.54-7.19-20.62,3.71,15.82s-5.23-15.52-5.86-15.79,3.68,18.43,3.24,18.23-1.13-.52-1.62-.77-3.1-17.7-3.1-17.7l.11,4.83-3-5.23,1.38,5.85s-1.78-.08-2-.64c-.24-.76-4.45-6.34-4.45-6.34l4.07,7.13-7.48-8.18,4,7.89-1.56-.13-9.31-8.81s8.28,11.09,8.09,11.49-.45.93-.7,1.42-11.34-13.33-11.34-13.33,9.57,16.5,9.17,17.07a5.46,5.46,0,0,1-1.87,1.91c-.25.1-12.73-20.16-12.73-20.16l5.76,14.73L289.6,307.44s8.82,18.19,7.85,18.06c-.34,0-10.87-18.54-10.87-18.54l8,18-1.75-.36c-1.06-.21-9.32-18.41-9.32-18.41s6.1,20.61,5.32,20.34a26.48,26.48,0,0,1-2.61-1.05c-.92-.43-5.2-19.82-5.2-19.82s.91,16.93.33,16.08C276.65,314.83,279.29,304.4,279.29,304.4Z"/><ellipse class="cls-28" cx="315.61" cy="428.18" rx="30.03" ry="2.94"/><ellipse id="shadow-8" data-name="shadow" class="cls-5" cx="284.78" cy="436.74" rx="61.98" ry="6.08" transform="translate(-20.86 14.34) rotate(-2.78)"/><g id="body-2" data-name="body"><path class="cls-6" d="M197.27,301.78C211,322.17,313.13,298.54,318,269.86s-47.85-81.09-82.22-73.45S183.58,281.39,197.27,301.78Zm38.38-101.63c38.9-6.56,82.8,42.56,78.17,69.83S209.17,316,199,300.33,196.75,206.71,235.65,200.15Z"/><path class="cls-7" d="M313.81,270c-4.63,27.27-104.64,46-114.78,30.35s-2.28-93.62,36.62-100.18S318.45,242.71,313.81,270Z"/><path id="shadow-9" data-name="shadow" class="cls-8" d="M211.37,217.4c-14.5,26.2-16.09,66.78-9.08,77.61,9.15,14.14,91.42.26,110.85-22.61-9.88,25.93-104.27,43.12-114.11,27.92C191.53,288.73,193.88,243,211.37,217.4Z"/><path class="cls-9" d="M234.6,206c-10.19,1.72-18.17,8.53-24.2,17.83,6.13-11,14.67-19.28,26-21.19,36.85-6.21,78.45,40.32,74.06,66.16,0,.24-.09.48-.15.72C310.5,242.71,270.36,199.95,234.6,206Z"/><path class="cls-6" d="M234.62,243.71S217.25,245,216,245.39s.09,2,.52,2.44S234.76,246,235,245.44,235.44,244.49,234.62,243.71Z"/><path class="cls-8" d="M215.84,244.2c-.17-4.31-5.18-16.85-12.89-18.12S186.56,229.7,184.89,237s.79,21.3,4.46,23.64,17.44,5.11,21.87-1.53S216,249.2,215.84,244.2Z"/><path class="cls-6" d="M188.49,262.3c3.93,2.5,18.67,5.47,23.41-1.64s5.16-10.57,5-15.91c-.18-4.61-5.55-18-13.8-19.39S185.5,229.22,183.72,237,184.56,259.8,188.49,262.3ZM184.89,237c1.67-7.26,10.36-12.15,18.06-10.87s12.72,13.81,12.89,18.12c.19,5-.2,8.22-4.63,14.86s-18.2,3.87-21.87,1.53S183.22,244.22,184.89,237Z"/><path class="cls-10" d="M196.79,230.52s-5.47-.67-7.31,1.55a17.82,17.82,0,0,0-2.78,5.76l2.91.31A10.38,10.38,0,0,1,196.79,230.52Z"/><path class="cls-8" d="M271.14,235.74c-2-4.66-10.53-15.75-21-13.76a20.55,20.55,0,0,0-16.66,19.53c-.18,8.37,2.62,15,9.77,16.13s20.2-.79,24.63-6.65S272.34,238.53,271.14,235.74Z"/><path class="cls-6" d="M243.11,259.4c7.6,1.23,21.46-.84,26.17-7.07s4.73-13.23,3.46-16.2c-2.12-5-11.18-16.74-22.32-14.62a21.83,21.83,0,0,0-17.69,20.75C232.53,251.15,235.51,258.17,243.11,259.4Zm-9.64-17.89A20.55,20.55,0,0,1,250.13,222c10.48-2,19,9.1,21,13.76,1.2,2.79,1.17,9.39-3.26,15.25s-17.48,7.81-24.63,6.65S233.29,249.87,233.47,241.51Z"/><path class="cls-10" d="M247.73,225.95s-5.7,1.51-7.14,4a12.48,12.48,0,0,0-1.62,3.81l2.25.76s1.68-3.37,2.1-4.23S247.73,225.95,247.73,225.95Z"/><path class="cls-6" d="M254.34,228.43A7.78,7.78,0,0,1,261,231a3.11,3.11,0,0,0-1.21-.07c-2.6.36-4.71,3.94-4.33,6.68a4.71,4.71,0,0,0,9.33.1,16.64,16.64,0,0,1,.49,2.31,10.35,10.35,0,0,1-8.73,12,10.2,10.2,0,0,1-11.63-9C244.08,237,248.67,229.22,254.34,228.43Z"/><path class="cls-6" d="M196.08,238.32a10.68,10.68,0,0,1,5.1.46c-2.83.91-4.47,4.07-4,7.29a6.24,6.24,0,0,0,7.21,5.17,4.42,4.42,0,0,0,2.87-1.61c-.19,4.91-2.57,9.35-7.3,10-5.68.79-11.3-2.73-12.13-8.7S190.4,239.11,196.08,238.32Z"/><path class="cls-6" d="M249.2,268.73A174.87,174.87,0,0,1,229.42,272c-10.77,1.14-16.28.11-16.28.11s2.23,14.73,10.6,15.72,17.09-2,20.82-6.12S249.2,268.73,249.2,268.73Z"/><path class="cls-11" d="M229.94,282s3.87-1.61,6.15-1.12,6.61,4.48,4.54,6.89c-2.22,2.59-14.58,4.31-16.86,2.61s-2.48-6.77-.26-8S229.94,282,229.94,282Z"/></g></g></g></g></g></svg>